<svg width="60" height="64" viewBox="0 0 60 64" fill="none" xmlns="http://www.w3.org/2000/svg">
<rect x="1.5" y="1.5" width="57" height="61" stroke="#784DD8" stroke-width="3"/>
<rect x="6.64337" y="6.37622" width="47.2857" height="51.2476" stroke="#784DD8" stroke-width="3"/>
<mask id="path-3-outside-1_685_1305" maskUnits="userSpaceOnUse" x="20" y="20" width="22" height="23" fill="black">
<rect fill="white" x="20" y="20" width="22" height="23"/>
<path d="M26.373 22.5156C26.3548 22.6068 26.3275 22.9486 26.291 23.541C26.2637 24.1243 26.2272 24.8854 26.1816 25.8242C26.1361 26.8451 26.0723 27.7565 25.9902 28.5586C25.9082 29.3516 25.8398 30.0716 25.7852 30.7188C26.1406 30.4727 26.5371 30.1445 26.9746 29.7344C27.4121 29.3151 27.8587 28.8639 28.3145 28.3809C28.7793 27.8887 29.235 27.3874 29.6816 26.877C30.1374 26.3665 30.5521 25.888 30.9258 25.4414C31.2995 24.9948 31.623 24.6029 31.8965 24.2656C32.1699 23.9284 32.3568 23.6914 32.457 23.5547C32.6576 23.2995 32.8717 23.0625 33.0996 22.8438C33.3366 22.6159 33.5599 22.4154 33.7695 22.2422C33.9792 22.0599 34.1706 21.9141 34.3438 21.8047C34.526 21.6862 34.6628 21.6087 34.7539 21.5723C34.8177 21.554 34.8724 21.5495 34.918 21.5586C34.9635 21.5677 35 21.5905 35.0273 21.627C35.0638 21.6543 35.082 21.709 35.082 21.791C35.1458 21.8366 35.1641 21.873 35.1367 21.9004C35.1094 21.9277 35.1094 21.9551 35.1367 21.9824C35.1641 22.0189 35.1914 22.0553 35.2188 22.0918C35.2461 22.1283 35.237 22.1875 35.1914 22.2695C35.1185 22.4336 35.041 22.5794 34.959 22.707C34.877 22.8346 34.763 22.9896 34.6172 23.1719C34.4714 23.3542 34.2708 23.5866 34.0156 23.8691C33.7695 24.1517 33.4368 24.5254 33.0176 24.9902C32.6074 25.4277 32.1335 25.9609 31.5957 26.5898C31.0579 27.2188 30.4792 27.8704 29.8594 28.5449C29.2487 29.2194 28.6061 29.8848 27.9316 30.541C27.2572 31.1973 26.5781 31.7715 25.8945 32.2637C26.1589 32.3184 26.4551 32.4004 26.7832 32.5098C27.1204 32.6191 27.4805 32.7695 27.8633 32.9609C28.2552 33.1523 28.6699 33.3893 29.1074 33.6719C29.554 33.9544 30.0234 34.2962 30.5156 34.6973C31.0807 35.1712 31.6322 35.6452 32.1699 36.1191C32.7077 36.5931 33.25 37.0215 33.7969 37.4043C34.3438 37.778 34.9043 38.0833 35.4785 38.3203C36.0527 38.5573 36.6589 38.6758 37.2969 38.6758C37.7161 38.6758 38.1536 38.6165 38.6094 38.498C39.0742 38.3796 39.5618 38.179 40.0723 37.8965C40.1908 37.8327 40.2773 37.7962 40.332 37.7871C40.3958 37.778 40.4323 37.7826 40.4414 37.8008C40.4596 37.819 40.4596 37.8509 40.4414 37.8965C40.4232 37.9329 40.4004 37.9694 40.373 38.0059C40.3548 38.0241 40.3229 38.0514 40.2773 38.0879C40.2318 38.1152 40.1771 38.1517 40.1133 38.1973C40.0586 38.2337 40.0039 38.2793 39.9492 38.334C39.8945 38.3796 39.849 38.4297 39.8125 38.4844C39.7852 38.5026 39.7852 38.5163 39.8125 38.5254C39.8398 38.5254 39.8626 38.5345 39.8809 38.5527C39.9082 38.5618 39.9173 38.5846 39.9082 38.6211C39.8991 38.6484 39.8398 38.694 39.7305 38.7578C39.6758 38.7943 39.6302 38.8444 39.5938 38.9082C39.5573 38.9629 39.5208 39.0221 39.4844 39.0859C39.457 39.1406 39.4206 39.1999 39.375 39.2637C39.3294 39.3184 39.2702 39.3639 39.1973 39.4004C39.0332 39.4915 38.9056 39.61 38.8145 39.7559C38.7324 39.8926 38.6641 39.9883 38.6094 40.043C38.5365 40.125 38.377 40.2389 38.1309 40.3848C37.8848 40.5306 37.5885 40.6719 37.2422 40.8086C36.9049 40.9362 36.5312 41.0365 36.1211 41.1094C35.7109 41.1914 35.3008 41.2005 34.8906 41.1367C34.2708 41.0365 33.6829 40.7995 33.127 40.4258C32.5801 40.0521 32.0469 39.6146 31.5273 39.1133C31.0169 38.6029 30.5202 38.056 30.0371 37.4727C29.554 36.8893 29.0755 36.3379 28.6016 35.8184C28.1276 35.2988 27.6491 34.8431 27.166 34.4512C26.6921 34.0501 26.2044 33.7767 25.7031 33.6309C25.7031 33.9954 25.7077 34.4102 25.7168 34.875C25.735 35.3398 25.7487 35.8229 25.7578 36.3242C25.776 36.8164 25.7897 37.304 25.7988 37.7871C25.8171 38.2611 25.8307 38.694 25.8398 39.0859C25.8581 39.4779 25.8717 39.806 25.8809 40.0703C25.8991 40.3346 25.9128 40.4941 25.9219 40.5488C25.9583 40.7767 25.9583 40.918 25.9219 40.9727C25.8854 41.0182 25.8125 41.0547 25.7031 41.082C25.6576 41.1003 25.6074 41.0957 25.5527 41.0684C25.5072 41.0501 25.457 41.0638 25.4023 41.1094C25.375 41.1367 25.3568 41.1686 25.3477 41.2051C25.3385 41.2415 25.3249 41.278 25.3066 41.3145C25.2884 41.36 25.2565 41.401 25.2109 41.4375C25.1745 41.474 25.1061 41.5059 25.0059 41.5332C24.9603 41.5514 24.9102 41.5605 24.8555 41.5605C24.8099 41.5605 24.7552 41.5605 24.6914 41.5605C24.6185 41.5788 24.5228 41.5514 24.4043 41.4785C24.2949 41.4147 24.1947 41.3464 24.1035 41.2734C24.0579 41.2279 24.0124 41.1641 23.9668 41.082C23.9212 41.0091 23.8757 40.9362 23.8301 40.8633C23.7845 40.8086 23.7298 40.7676 23.666 40.7402C23.6113 40.7129 23.5703 40.64 23.543 40.5215C23.4427 40.1022 23.3743 39.5827 23.3379 38.9629C23.3105 38.3431 23.2969 37.7051 23.2969 37.0488C23.2969 36.666 23.3014 36.2878 23.3105 35.9141C23.3197 35.5312 23.3288 35.1712 23.3379 34.834C23.3561 34.4876 23.3698 34.1686 23.3789 33.877C23.3971 33.5853 23.4154 33.3392 23.4336 33.1387L22.8457 33.0703C22.6816 33.0703 22.5632 33.0612 22.4902 33.043C22.4173 33.0247 22.3581 33.002 22.3125 32.9746C22.276 32.9382 22.2396 32.8971 22.2031 32.8516C22.1667 32.806 22.112 32.7604 22.0391 32.7148C21.8932 32.6146 21.8066 32.5189 21.7793 32.4277C21.752 32.3275 21.8385 32.1999 22.0391 32.0449C22.1758 31.9264 22.3626 31.8444 22.5996 31.7988C22.8366 31.7441 23.151 31.6667 23.543 31.5664C23.5612 31.1289 23.5794 30.6367 23.5977 30.0898C23.625 29.543 23.6569 28.9779 23.6934 28.3945C23.7298 27.8021 23.7663 27.2096 23.8027 26.6172C23.8483 26.0156 23.8939 25.446 23.9395 24.9082C23.985 24.3704 24.0352 23.8783 24.0898 23.4316C24.1445 22.985 24.1992 22.6159 24.2539 22.3242C24.2721 22.1966 24.2949 22.1055 24.3223 22.0508C24.3587 21.9961 24.3997 21.9551 24.4453 21.9277C24.5 21.9186 24.5501 21.9368 24.5957 21.9824C24.6413 22.028 24.7005 22.028 24.7734 21.9824C24.8281 21.9551 24.8737 21.9323 24.9102 21.9141C24.9466 21.8867 24.974 21.873 24.9922 21.873C25.0195 21.8639 25.0423 21.873 25.0605 21.9004C25.0788 21.9277 25.1061 21.9779 25.1426 22.0508C25.1517 22.0599 25.1608 22.0599 25.1699 22.0508C25.1882 22.0417 25.2064 22.028 25.2246 22.0098L25.2793 21.9551C25.3431 21.9277 25.4251 21.9095 25.5254 21.9004C25.6257 21.8822 25.6849 21.9095 25.7031 21.9824C25.7122 22.0462 25.7259 22.0736 25.7441 22.0645C25.7624 22.0462 25.7852 22.0189 25.8125 21.9824C25.849 21.946 25.89 21.9095 25.9355 21.873C25.9811 21.8366 26.0358 21.8275 26.0996 21.8457C26.2272 21.8913 26.3229 21.9688 26.3867 22.0781C26.4505 22.1784 26.446 22.3242 26.373 22.5156Z"/>
</mask>
<path d="M26.373 22.5156C26.3548 22.6068 26.3275 22.9486 26.291 23.541C26.2637 24.1243 26.2272 24.8854 26.1816 25.8242C26.1361 26.8451 26.0723 27.7565 25.9902 28.5586C25.9082 29.3516 25.8398 30.0716 25.7852 30.7188C26.1406 30.4727 26.5371 30.1445 26.9746 29.7344C27.4121 29.3151 27.8587 28.8639 28.3145 28.3809C28.7793 27.8887 29.235 27.3874 29.6816 26.877C30.1374 26.3665 30.5521 25.888 30.9258 25.4414C31.2995 24.9948 31.623 24.6029 31.8965 24.2656C32.1699 23.9284 32.3568 23.6914 32.457 23.5547C32.6576 23.2995 32.8717 23.0625 33.0996 22.8438C33.3366 22.6159 33.5599 22.4154 33.7695 22.2422C33.9792 22.0599 34.1706 21.9141 34.3438 21.8047C34.526 21.6862 34.6628 21.6087 34.7539 21.5723C34.8177 21.554 34.8724 21.5495 34.918 21.5586C34.9635 21.5677 35 21.5905 35.0273 21.627C35.0638 21.6543 35.082 21.709 35.082 21.791C35.1458 21.8366 35.1641 21.873 35.1367 21.9004C35.1094 21.9277 35.1094 21.9551 35.1367 21.9824C35.1641 22.0189 35.1914 22.0553 35.2188 22.0918C35.2461 22.1283 35.237 22.1875 35.1914 22.2695C35.1185 22.4336 35.041 22.5794 34.959 22.707C34.877 22.8346 34.763 22.9896 34.6172 23.1719C34.4714 23.3542 34.2708 23.5866 34.0156 23.8691C33.7695 24.1517 33.4368 24.5254 33.0176 24.9902C32.6074 25.4277 32.1335 25.9609 31.5957 26.5898C31.0579 27.2188 30.4792 27.8704 29.8594 28.5449C29.2487 29.2194 28.6061 29.8848 27.9316 30.541C27.2572 31.1973 26.5781 31.7715 25.8945 32.2637C26.1589 32.3184 26.4551 32.4004 26.7832 32.5098C27.1204 32.6191 27.4805 32.7695 27.8633 32.9609C28.2552 33.1523 28.6699 33.3893 29.1074 33.6719C29.554 33.9544 30.0234 34.2962 30.5156 34.6973C31.0807 35.1712 31.6322 35.6452 32.1699 36.1191C32.7077 36.5931 33.25 37.0215 33.7969 37.4043C34.3438 37.778 34.9043 38.0833 35.4785 38.3203C36.0527 38.5573 36.6589 38.6758 37.2969 38.6758C37.7161 38.6758 38.1536 38.6165 38.6094 38.498C39.0742 38.3796 39.5618 38.179 40.0723 37.8965C40.1908 37.8327 40.2773 37.7962 40.332 37.7871C40.3958 37.778 40.4323 37.7826 40.4414 37.8008C40.4596 37.819 40.4596 37.8509 40.4414 37.8965C40.4232 37.9329 40.4004 37.9694 40.373 38.0059C40.3548 38.0241 40.3229 38.0514 40.2773 38.0879C40.2318 38.1152 40.1771 38.1517 40.1133 38.1973C40.0586 38.2337 40.0039 38.2793 39.9492 38.334C39.8945 38.3796 39.849 38.4297 39.8125 38.4844C39.7852 38.5026 39.7852 38.5163 39.8125 38.5254C39.8398 38.5254 39.8626 38.5345 39.8809 38.5527C39.9082 38.5618 39.9173 38.5846 39.9082 38.6211C39.8991 38.6484 39.8398 38.694 39.7305 38.7578C39.6758 38.7943 39.6302 38.8444 39.5938 38.9082C39.5573 38.9629 39.5208 39.0221 39.4844 39.0859C39.457 39.1406 39.4206 39.1999 39.375 39.2637C39.3294 39.3184 39.2702 39.3639 39.1973 39.4004C39.0332 39.4915 38.9056 39.61 38.8145 39.7559C38.7324 39.8926 38.6641 39.9883 38.6094 40.043C38.5365 40.125 38.377 40.2389 38.1309 40.3848C37.8848 40.5306 37.5885 40.6719 37.2422 40.8086C36.9049 40.9362 36.5312 41.0365 36.1211 41.1094C35.7109 41.1914 35.3008 41.2005 34.8906 41.1367C34.2708 41.0365 33.6829 40.7995 33.127 40.4258C32.5801 40.0521 32.0469 39.6146 31.5273 39.1133C31.0169 38.6029 30.5202 38.056 30.0371 37.4727C29.554 36.8893 29.0755 36.3379 28.6016 35.8184C28.1276 35.2988 27.6491 34.8431 27.166 34.4512C26.6921 34.0501 26.2044 33.7767 25.7031 33.6309C25.7031 33.9954 25.7077 34.4102 25.7168 34.875C25.735 35.3398 25.7487 35.8229 25.7578 36.3242C25.776 36.8164 25.7897 37.304 25.7988 37.7871C25.8171 38.2611 25.8307 38.694 25.8398 39.0859C25.8581 39.4779 25.8717 39.806 25.8809 40.0703C25.8991 40.3346 25.9128 40.4941 25.9219 40.5488C25.9583 40.7767 25.9583 40.918 25.9219 40.9727C25.8854 41.0182 25.8125 41.0547 25.7031 41.082C25.6576 41.1003 25.6074 41.0957 25.5527 41.0684C25.5072 41.0501 25.457 41.0638 25.4023 41.1094C25.375 41.1367 25.3568 41.1686 25.3477 41.2051C25.3385 41.2415 25.3249 41.278 25.3066 41.3145C25.2884 41.36 25.2565 41.401 25.2109 41.4375C25.1745 41.474 25.1061 41.5059 25.0059 41.5332C24.9603 41.5514 24.9102 41.5605 24.8555 41.5605C24.8099 41.5605 24.7552 41.5605 24.6914 41.5605C24.6185 41.5788 24.5228 41.5514 24.4043 41.4785C24.2949 41.4147 24.1947 41.3464 24.1035 41.2734C24.0579 41.2279 24.0124 41.1641 23.9668 41.082C23.9212 41.0091 23.8757 40.9362 23.8301 40.8633C23.7845 40.8086 23.7298 40.7676 23.666 40.7402C23.6113 40.7129 23.5703 40.64 23.543 40.5215C23.4427 40.1022 23.3743 39.5827 23.3379 38.9629C23.3105 38.3431 23.2969 37.7051 23.2969 37.0488C23.2969 36.666 23.3014 36.2878 23.3105 35.9141C23.3197 35.5312 23.3288 35.1712 23.3379 34.834C23.3561 34.4876 23.3698 34.1686 23.3789 33.877C23.3971 33.5853 23.4154 33.3392 23.4336 33.1387L22.8457 33.0703C22.6816 33.0703 22.5632 33.0612 22.4902 33.043C22.4173 33.0247 22.3581 33.002 22.3125 32.9746C22.276 32.9382 22.2396 32.8971 22.2031 32.8516C22.1667 32.806 22.112 32.7604 22.0391 32.7148C21.8932 32.6146 21.8066 32.5189 21.7793 32.4277C21.752 32.3275 21.8385 32.1999 22.0391 32.0449C22.1758 31.9264 22.3626 31.8444 22.5996 31.7988C22.8366 31.7441 23.151 31.6667 23.543 31.5664C23.5612 31.1289 23.5794 30.6367 23.5977 30.0898C23.625 29.543 23.6569 28.9779 23.6934 28.3945C23.7298 27.8021 23.7663 27.2096 23.8027 26.6172C23.8483 26.0156 23.8939 25.446 23.9395 24.9082C23.985 24.3704 24.0352 23.8783 24.0898 23.4316C24.1445 22.985 24.1992 22.6159 24.2539 22.3242C24.2721 22.1966 24.2949 22.1055 24.3223 22.0508C24.3587 21.9961 24.3997 21.9551 24.4453 21.9277C24.5 21.9186 24.5501 21.9368 24.5957 21.9824C24.6413 22.028 24.7005 22.028 24.7734 21.9824C24.8281 21.9551 24.8737 21.9323 24.9102 21.9141C24.9466 21.8867 24.974 21.873 24.9922 21.873C25.0195 21.8639 25.0423 21.873 25.0605 21.9004C25.0788 21.9277 25.1061 21.9779 25.1426 22.0508C25.1517 22.0599 25.1608 22.0599 25.1699 22.0508C25.1882 22.0417 25.2064 22.028 25.2246 22.0098L25.2793 21.9551C25.3431 21.9277 25.4251 21.9095 25.5254 21.9004C25.6257 21.8822 25.6849 21.9095 25.7031 21.9824C25.7122 22.0462 25.7259 22.0736 25.7441 22.0645C25.7624 22.0462 25.7852 22.0189 25.8125 21.9824C25.849 21.946 25.89 21.9095 25.9355 21.873C25.9811 21.8366 26.0358 21.8275 26.0996 21.8457C26.2272 21.8913 26.3229 21.9688 26.3867 22.0781C26.4505 22.1784 26.446 22.3242 26.373 22.5156Z" fill="#7F56DA"/>
<path d="M26.373 22.5156L25.4386 22.1596L25.4088 22.2376L25.3925 22.3195L26.373 22.5156ZM26.291 23.541L25.2929 23.4796L25.2925 23.4869L25.2921 23.4942L26.291 23.541ZM26.1816 25.8242L25.1828 25.7757L25.1826 25.7796L26.1816 25.8242ZM25.9902 28.5586L26.9849 28.6615L26.985 28.6603L25.9902 28.5586ZM25.7852 30.7188L24.7887 30.6345L24.6101 32.7485L26.3544 31.5409L25.7852 30.7188ZM26.9746 29.7344L27.6586 30.464L27.6665 30.4564L26.9746 29.7344ZM28.3145 28.3809L27.5874 27.6942L27.5871 27.6946L28.3145 28.3809ZM29.6816 26.877L28.9357 26.2109L28.9291 26.2184L29.6816 26.877ZM30.9258 25.4414L31.6927 26.0831L30.9258 25.4414ZM32.457 23.5547L31.6707 22.9369L31.6604 22.9499L31.6506 22.9633L32.457 23.5547ZM33.0996 22.8438L33.7921 23.5651L33.7927 23.5646L33.0996 22.8438ZM33.7695 22.2422L34.4064 23.0131L34.4162 23.0051L34.4257 22.9968L33.7695 22.2422ZM34.3438 21.8047L34.8778 22.6502L34.8887 22.6431L34.3438 21.8047ZM34.7539 21.5723L34.4792 20.6107L34.43 20.6248L34.3825 20.6438L34.7539 21.5723ZM35.0273 21.627L34.2273 22.227L34.3131 22.3412L34.4273 22.427L35.0273 21.627ZM35.082 21.791H34.082V22.3056L34.5008 22.6047L35.082 21.791ZM35.1367 21.9824L35.9367 21.3824L35.8941 21.3256L35.8438 21.2753L35.1367 21.9824ZM35.1914 22.2695L34.3172 21.7839L34.2957 21.8228L34.2776 21.8634L35.1914 22.2695ZM34.0156 23.8691L33.2735 23.1989L33.2675 23.2056L33.2615 23.2124L34.0156 23.8691ZM33.0176 24.9902L33.7471 25.6742L33.7537 25.6672L33.7601 25.66L33.0176 24.9902ZM29.8594 28.5449L29.123 27.8683L29.1181 27.8737L29.8594 28.5449ZM27.9316 30.541L27.2343 29.8243L27.9316 30.541ZM25.8945 32.2637L25.3102 31.4521L23.4634 32.7819L25.6919 33.2429L25.8945 32.2637ZM26.7832 32.5098L26.467 33.4585L26.4747 33.461L26.7832 32.5098ZM27.8633 32.9609L27.416 33.8554L27.4244 33.8595L27.8633 32.9609ZM29.1074 33.6719L28.5649 34.512L28.5728 34.517L29.1074 33.6719ZM30.5156 34.6973L31.1582 33.9311L31.1528 33.9265L31.1473 33.922L30.5156 34.6973ZM33.7969 37.4043L33.2234 38.2236L33.2327 38.2299L33.7969 37.4043ZM38.6094 38.498L38.3624 37.529L38.3577 37.5302L38.6094 38.498ZM40.0723 37.8965L39.5981 37.016L39.5879 37.0216L40.0723 37.8965ZM40.332 37.7871L40.1906 36.7972L40.1791 36.7988L40.1676 36.8007L40.332 37.7871ZM40.4414 37.8008L39.547 38.248L39.6196 38.3931L39.7343 38.5079L40.4414 37.8008ZM40.4414 37.8965L41.3358 38.3437L41.3544 38.3065L41.3699 38.2679L40.4414 37.8965ZM40.373 38.0059L41.0802 38.713L41.1304 38.6627L41.173 38.6059L40.373 38.0059ZM40.2773 38.0879L40.7918 38.9454L40.8495 38.9108L40.902 38.8688L40.2773 38.0879ZM40.1133 38.1973L40.668 39.0293L40.6814 39.0204L40.6945 39.011L40.1133 38.1973ZM39.9492 38.334L40.5894 39.1022L40.6243 39.0732L40.6563 39.0411L39.9492 38.334ZM39.8125 38.4844L40.3672 39.3164L40.5336 39.2055L40.6446 39.0391L39.8125 38.4844ZM39.8125 38.5254L39.4963 39.4741L39.6502 39.5254H39.8125V38.5254ZM39.8809 38.5527L39.1738 39.2598L39.3407 39.4268L39.5646 39.5014L39.8809 38.5527ZM39.9082 38.6211L40.8569 38.9373L40.869 38.9009L40.8783 38.8636L39.9082 38.6211ZM39.7305 38.7578L39.2266 37.894L39.2007 37.9091L39.1758 37.9258L39.7305 38.7578ZM39.5938 38.9082L40.4258 39.4629L40.4449 39.4342L40.462 39.4043L39.5938 38.9082ZM39.4844 39.0859L38.6161 38.5898L38.6024 38.6139L38.5899 38.6387L39.4844 39.0859ZM39.375 39.2637L40.1432 39.9039L40.1671 39.8752L40.1887 39.8449L39.375 39.2637ZM39.1973 39.4004L38.7501 38.506L38.7306 38.5157L38.7116 38.5262L39.1973 39.4004ZM38.8145 39.7559L37.9665 39.2259L37.9616 39.2336L37.957 39.2414L38.8145 39.7559ZM38.6094 40.043L37.9023 39.3359L37.8815 39.3566L37.862 39.3786L38.6094 40.043ZM38.1309 40.3848L37.6211 39.5245L38.1309 40.3848ZM37.2422 40.8086L37.5961 41.7439L37.6027 41.7414L37.6094 41.7387L37.2422 40.8086ZM36.1211 41.1094L35.9461 40.1248L35.9355 40.1267L35.925 40.1288L36.1211 41.1094ZM34.8906 41.1367L34.7309 42.1239L34.7369 42.1248L34.8906 41.1367ZM33.127 40.4258L32.5627 41.2514L32.5691 41.2557L33.127 40.4258ZM31.5273 39.1133L30.8202 39.8204L30.8265 39.8267L30.833 39.8329L31.5273 39.1133ZM30.0371 37.4727L29.2669 38.1105L30.0371 37.4727ZM28.6016 35.8184L29.3403 35.1444L28.6016 35.8184ZM27.166 34.4512L26.5201 35.2146L26.528 35.2212L26.536 35.2277L27.166 34.4512ZM25.7031 33.6309L25.9825 32.6707L24.7031 32.2985V33.6309H25.7031ZM25.7168 34.875L24.717 34.8946L24.7172 34.9044L24.7176 34.9142L25.7168 34.875ZM25.7578 36.3242L24.758 36.3424L24.7581 36.3518L24.7585 36.3612L25.7578 36.3242ZM25.7988 37.7871L24.799 37.806L24.7992 37.8158L24.7996 37.8255L25.7988 37.7871ZM25.8398 39.0859L24.8401 39.1092L24.8404 39.1208L24.8409 39.1324L25.8398 39.0859ZM25.8809 40.0703L24.8815 40.1048L24.882 40.122L24.8832 40.1391L25.8809 40.0703ZM25.9219 40.5488L26.9093 40.3908L26.9083 40.3844L25.9219 40.5488ZM25.9219 40.9727L26.7027 41.5974L26.7299 41.5635L26.7539 41.5274L25.9219 40.9727ZM25.7031 41.082L25.4606 40.1119L25.3947 40.1283L25.3317 40.1536L25.7031 41.082ZM25.5527 41.0684L25.9999 40.1739L25.9627 40.1553L25.9241 40.1399L25.5527 41.0684ZM25.4023 41.1094L24.7622 40.3412L24.7273 40.3702L24.6952 40.4023L25.4023 41.1094ZM25.3477 41.2051L24.3775 40.9625L25.3477 41.2051ZM25.3066 41.3145L24.4122 40.8672L24.3936 40.9044L24.3782 40.9431L25.3066 41.3145ZM25.2109 41.4375L24.5862 40.6566L24.543 40.6912L24.5038 40.7304L25.2109 41.4375ZM25.0059 41.5332L24.7427 40.5684L24.6876 40.5835L24.6345 40.6047L25.0059 41.5332ZM24.6914 41.5605V40.5605H24.5683L24.4489 40.5904L24.6914 41.5605ZM24.4043 41.4785L24.9284 40.6269L24.9184 40.6207L24.9082 40.6147L24.4043 41.4785ZM24.1035 41.2734L23.3964 41.9805L23.4356 42.0197L23.4788 42.0543L24.1035 41.2734ZM23.9668 41.082L24.841 40.5964L24.8284 40.5739L24.8148 40.552L23.9668 41.082ZM23.8301 40.8633L24.6781 40.3333L24.6419 40.2755L24.5983 40.2231L23.8301 40.8633ZM23.666 40.7402L23.2188 41.6347L23.2451 41.6478L23.2721 41.6594L23.666 40.7402ZM23.543 40.5215L24.5174 40.2966L24.5155 40.2889L23.543 40.5215ZM23.3379 38.9629L22.3389 39.007L22.3392 39.0143L22.3396 39.0216L23.3379 38.9629ZM23.3105 35.9141L24.3102 35.9384L24.3103 35.9379L23.3105 35.9141ZM23.3379 34.834L22.3393 34.7814L22.3386 34.7942L22.3383 34.807L23.3379 34.834ZM23.3789 33.877L22.3809 33.8146L22.3799 33.8301L22.3794 33.8457L23.3789 33.877ZM23.4336 33.1387L24.4295 33.2292L24.5178 32.258L23.5491 32.1454L23.4336 33.1387ZM22.8457 33.0703L22.9612 32.077L22.9036 32.0703H22.8457V33.0703ZM22.3125 32.9746L21.6054 33.6817L21.6924 33.7688L21.798 33.8321L22.3125 32.9746ZM22.0391 32.7148L21.4725 33.5389L21.4905 33.5513L21.5091 33.5628L22.0391 32.7148ZM21.7793 32.4277L20.8145 32.6909L20.8178 32.703L20.8215 32.7151L21.7793 32.4277ZM22.0391 32.0449L22.6505 32.8362L22.6728 32.819L22.694 32.8006L22.0391 32.0449ZM22.5996 31.7988L22.7885 32.7808L22.8065 32.7774L22.8245 32.7732L22.5996 31.7988ZM23.543 31.5664L23.7908 32.5352L24.5111 32.3509L24.5421 31.608L23.543 31.5664ZM23.5977 30.0898L22.5989 30.0399L22.5985 30.0482L22.5982 30.0565L23.5977 30.0898ZM23.6934 28.3945L24.6914 28.4569L24.6915 28.456L23.6934 28.3945ZM23.8027 26.6172L22.8056 26.5416L22.8051 26.5487L22.8046 26.5558L23.8027 26.6172ZM23.9395 24.9082L22.943 24.8238L23.9395 24.9082ZM24.2539 22.3242L25.2368 22.5085L25.2408 22.4872L25.2439 22.4656L24.2539 22.3242ZM24.3223 22.0508L23.4902 21.4961L23.4557 21.5479L23.4278 21.6036L24.3223 22.0508ZM24.4453 21.9277L24.2809 20.9413L24.0936 20.9726L23.9308 21.0702L24.4453 21.9277ZM24.7734 21.9824L24.3262 21.088L24.2837 21.1092L24.2434 21.1344L24.7734 21.9824ZM24.9102 21.9141L25.3574 22.8085L25.438 22.7682L25.5102 22.7141L24.9102 21.9141ZM24.9922 21.873V22.873H25.1545L25.3084 22.8217L24.9922 21.873ZM25.1426 22.0508L24.2482 22.498L24.3207 22.6431L24.4355 22.7579L25.1426 22.0508ZM25.1699 22.0508L24.7227 21.1564L24.5776 21.2289L24.4628 21.3437L25.1699 22.0508ZM25.2246 22.0098L25.9317 22.7169L25.2246 22.0098ZM25.2793 21.9551L24.8854 21.0359L24.7084 21.1118L24.5722 21.248L25.2793 21.9551ZM25.5254 21.9004L25.6159 22.8963L25.6604 22.8922L25.7043 22.8843L25.5254 21.9004ZM25.7031 21.9824L26.6931 21.841L26.6858 21.7899L26.6733 21.7399L25.7031 21.9824ZM25.7441 22.0645L26.1914 22.9589L26.3365 22.8863L26.4512 22.7716L25.7441 22.0645ZM25.8125 21.9824L25.1054 21.2753L25.0551 21.3256L25.0125 21.3824L25.8125 21.9824ZM26.0996 21.8457L26.4359 20.904L26.4055 20.8931L26.3743 20.8842L26.0996 21.8457ZM26.3867 22.0781L25.5229 22.582L25.5327 22.5987L25.5431 22.615L26.3867 22.0781ZM25.3925 22.3195C25.3694 22.435 25.3542 22.6084 25.3421 22.7606C25.3277 22.9404 25.3113 23.181 25.2929 23.4796L27.2891 23.6024C27.3072 23.3086 27.3227 23.082 27.3357 22.9201C27.3422 22.8388 27.3477 22.7782 27.3522 22.7357C27.3578 22.6826 27.359 22.6848 27.3536 22.7117L25.3925 22.3195ZM25.2921 23.4942C25.2648 24.0767 25.2284 24.8372 25.1828 25.7757L27.1805 25.8727C27.2261 24.9336 27.2625 24.172 27.2899 23.5878L25.2921 23.4942ZM25.1826 25.7796C25.1377 26.7861 25.0751 27.678 24.9954 28.4569L26.985 28.6603C27.0695 27.835 27.1344 26.904 27.1806 25.8688L25.1826 25.7796ZM24.9955 28.4557C24.913 29.2536 24.844 29.98 24.7887 30.6345L26.7816 30.803C26.8357 30.1633 26.9034 29.4496 26.9849 28.6615L24.9955 28.4557ZM26.3544 31.5409C26.7624 31.2584 27.1978 30.8959 27.6586 30.4639L26.2907 29.0048C25.8764 29.3932 25.5188 29.6869 25.2159 29.8966L26.3544 31.5409ZM27.6665 30.4564C28.1172 30.0244 28.5757 29.5612 29.0418 29.0671L27.5871 27.6946C27.1418 28.1666 26.707 28.6058 26.2827 29.0124L27.6665 30.4564ZM29.0415 29.0675C29.515 28.5661 29.9793 28.0554 30.4342 27.5355L28.9291 26.2184C28.4908 26.7193 28.0436 27.2113 27.5874 27.6942L29.0415 29.0675ZM30.4276 27.543C30.8892 27.0259 31.3111 26.5392 31.6927 26.0831L30.1588 24.7997C29.7931 25.2368 29.3855 25.7072 28.9357 26.2109L30.4276 27.543ZM31.6927 26.0831C32.0687 25.6338 32.3957 25.2377 32.6732 24.8954L31.1197 23.6358C30.8504 23.968 30.5303 24.3558 30.1588 24.7997L31.6927 26.0831ZM32.6732 24.8954C32.946 24.5591 33.1471 24.3048 33.2634 24.1461L31.6506 22.9633C31.5665 23.0781 31.3939 23.2977 31.1197 23.6358L32.6732 24.8954ZM33.2434 24.1725C33.4159 23.953 33.5988 23.7507 33.7921 23.5651L32.4071 22.1224C32.1447 22.3743 31.8993 22.646 31.6707 22.9369L33.2434 24.1725ZM33.7927 23.5646C34.0152 23.3507 34.2196 23.1674 34.4064 23.0131L33.1326 21.4712C32.9002 21.6633 32.658 21.8811 32.4065 22.1229L33.7927 23.5646ZM34.4257 22.9968C34.6095 22.837 34.7596 22.7248 34.8777 22.6502L33.8098 20.9592C33.5815 21.1033 33.3488 21.2828 33.1134 21.4876L34.4257 22.9968ZM34.8887 22.6431C34.9688 22.5911 35.0305 22.5535 35.076 22.5277C35.1255 22.4997 35.1387 22.4954 35.1253 22.5007L34.3825 20.6438C34.1933 20.7195 33.9863 20.8443 33.7988 20.9662L34.8887 22.6431ZM35.0286 22.5338C35.0005 22.5418 34.8849 22.5718 34.7219 22.5392L35.1141 20.578C34.8599 20.5272 34.6349 20.5662 34.4792 20.6107L35.0286 22.5338ZM34.7219 22.5392C34.6359 22.522 34.5417 22.4881 34.4495 22.4305C34.3571 22.3727 34.2831 22.3013 34.2273 22.227L35.8273 21.027C35.6492 20.7894 35.3956 20.6343 35.1141 20.578L34.7219 22.5392ZM34.4273 22.427C34.2444 22.2898 34.1578 22.1191 34.1197 22.0047C34.0838 21.897 34.082 21.8159 34.082 21.791H36.082C36.082 21.635 36.0603 21.1517 35.6273 20.827L34.4273 22.427ZM34.5008 22.6047C34.4864 22.5945 34.4538 22.5701 34.4142 22.5306C34.3779 22.4943 34.3083 22.418 34.2491 22.2998C34.1869 22.1752 34.1243 21.9777 34.1587 21.7368C34.1939 21.4903 34.3149 21.308 34.4296 21.1933L35.8438 22.6075C35.9722 22.4791 36.1011 22.282 36.1386 22.0196C36.1753 21.7627 36.1094 21.5481 36.038 21.4053C35.9154 21.1603 35.7267 21.0226 35.6633 20.9773L34.5008 22.6047ZM34.4296 21.1933C34.3069 21.316 34.1162 21.569 34.1162 21.9414C34.1162 22.3138 34.3069 22.5669 34.4296 22.6895L35.8438 21.2753C35.9392 21.3706 36.1162 21.5963 36.1162 21.9414C36.1162 22.2865 35.9392 22.5122 35.8438 22.6075L34.4296 21.1933ZM34.3367 22.5824C34.3405 22.5875 34.338 22.5842 34.3418 22.5893C34.3456 22.5943 34.3432 22.591 34.347 22.5961C34.3508 22.6012 34.3483 22.5979 34.3521 22.6029C34.3559 22.608 34.3534 22.6047 34.3572 22.6098C34.361 22.6148 34.3586 22.6115 34.3624 22.6166C34.3662 22.6217 34.3637 22.6184 34.3675 22.6234C34.3713 22.6285 34.3688 22.6252 34.3726 22.6303C34.3764 22.6353 34.3739 22.632 34.3777 22.6371C34.396 22.6614 34.4005 22.6675 34.4187 22.6918L36.0188 21.4918C36.015 21.4867 36.0174 21.49 36.0136 21.485C36.0098 21.4799 36.0123 21.4832 36.0085 21.4781C36.0047 21.4731 36.0072 21.4764 36.0034 21.4713C35.9996 21.4662 36.002 21.4695 35.9982 21.4645C35.9944 21.4594 35.9969 21.4627 35.9931 21.4576C35.9893 21.4526 35.9918 21.4558 35.988 21.4508C35.9842 21.4457 35.9867 21.449 35.9829 21.4439C35.9791 21.4389 35.9815 21.4422 35.9777 21.4371C35.9595 21.4128 35.9549 21.4067 35.9367 21.3824L34.3367 22.5824ZM34.4187 22.6918C34.2248 22.4332 34.2211 22.1604 34.2441 22.0115C34.2647 21.8771 34.3113 21.7946 34.3172 21.7839L36.0656 22.7552C36.1171 22.6625 36.191 22.5093 36.2208 22.3156C36.2528 22.1075 36.24 21.7868 36.0188 21.4918L34.4187 22.6918ZM34.2776 21.8634C34.2218 21.989 34.1678 22.0886 34.1178 22.1663L35.8002 23.2478C35.9143 23.0703 36.0152 22.8782 36.1052 22.6757L34.2776 21.8634ZM34.1178 22.1663C34.0615 22.2539 33.9707 22.3791 33.8363 22.5472L35.3981 23.7966C35.5553 23.6 35.6924 23.4154 35.8002 23.2478L34.1178 22.1663ZM33.8363 22.5472C33.7082 22.7073 33.5225 22.9232 33.2735 23.1989L34.7577 24.5394C35.0191 24.25 35.2345 24.001 35.3981 23.7966L33.8363 22.5472ZM33.2615 23.2124C33.0209 23.4886 32.6926 23.8575 32.275 24.3205L33.7601 25.66C34.1811 25.1933 34.5181 24.8148 34.7697 24.5259L33.2615 23.2124ZM32.288 24.3063C31.8644 24.7582 31.3799 25.3035 30.8357 25.94L32.3557 27.2397C32.887 26.6184 33.3504 26.0973 33.7471 25.6742L32.288 24.3063ZM30.8357 25.94C30.3064 26.5589 29.7356 27.2017 29.123 27.8683L30.5957 29.2215C31.2227 28.5392 31.8095 27.8786 32.3557 27.2397L30.8357 25.94ZM29.1181 27.8737C28.522 28.5321 27.8942 29.1823 27.2343 29.8243L28.629 31.2577C29.3181 30.5873 29.9754 29.9067 30.6007 29.2161L29.1181 27.8737ZM27.2343 29.8243C26.5911 30.4501 25.9495 30.9918 25.3102 31.4521L26.4788 33.0752C27.2067 32.5511 27.9233 31.9444 28.629 31.2577L27.2343 29.8243ZM25.6919 33.2429C25.9089 33.2878 26.1663 33.3582 26.467 33.4584L27.0994 31.5611C26.7438 31.4426 26.4088 31.3489 26.0971 31.2844L25.6919 33.2429ZM26.4747 33.461C26.7558 33.5522 27.0692 33.6819 27.4161 33.8554L28.3105 32.0665C27.8918 31.8571 27.4851 31.6861 27.0917 31.5585L26.4747 33.461ZM27.4244 33.8595C27.7746 34.0305 28.1546 34.2469 28.5649 34.5119L29.6499 32.8318C29.1853 32.5317 28.7358 32.2742 28.3021 32.0624L27.4244 33.8595ZM28.5728 34.517C28.9798 34.7744 29.4168 35.0918 29.884 35.4725L31.1473 33.922C30.6301 33.5006 30.1283 33.1344 29.6421 32.8268L28.5728 34.517ZM29.873 35.4635C30.432 35.9323 30.9773 36.4009 31.5087 36.8693L32.8311 35.3689C32.2871 34.8894 31.7294 34.4101 31.1582 33.9311L29.873 35.4635ZM31.5087 36.8693C32.0724 37.3661 32.6439 37.8179 33.2234 38.2235L34.3703 36.5851C33.8561 36.2251 33.343 35.8201 32.8311 35.3689L31.5087 36.8693ZM33.2327 38.2299C33.8331 38.6402 34.4546 38.9795 35.097 39.2447L35.86 37.3959C35.354 37.1871 34.8544 36.9158 34.3611 36.5787L33.2327 38.2299ZM35.097 39.2447C35.7955 39.533 36.5316 39.6758 37.2969 39.6758V37.6758C36.7861 37.6758 36.3099 37.5816 35.86 37.3959L35.097 39.2447ZM37.2969 39.6758C37.8107 39.6758 38.333 39.6031 38.861 39.4659L38.3577 37.5302C37.9743 37.6299 37.6216 37.6758 37.2969 37.6758V39.6758ZM38.8564 39.4671C39.4196 39.3235 39.9869 39.0867 40.5566 38.7714L39.5879 37.0216C39.1368 37.2713 38.7289 37.4356 38.3624 37.529L38.8564 39.4671ZM40.5464 38.777C40.5664 38.7661 40.5823 38.758 40.5944 38.7521C40.6066 38.7462 40.6129 38.7434 40.6141 38.7429C40.6158 38.7422 40.6079 38.7457 40.592 38.7508C40.5838 38.7534 40.5719 38.757 40.5567 38.7609C40.5417 38.7647 40.5213 38.7694 40.4964 38.7735L40.1676 36.8007C39.9318 36.84 39.7143 36.9535 39.5982 37.016L40.5464 38.777ZM40.4735 38.7771C40.4728 38.7771 40.3954 38.79 40.2832 38.776C40.2252 38.7687 40.112 38.749 39.9822 38.6841C39.8435 38.6147 39.6634 38.4809 39.547 38.248L41.3358 37.3536C41.0939 36.8696 40.6215 36.8027 40.5313 36.7914C40.3826 36.7728 40.255 36.788 40.1906 36.7972L40.4735 38.7771ZM39.7343 38.5079C39.5134 38.287 39.4551 38.0209 39.4551 37.8384C39.4551 37.6776 39.4976 37.5635 39.5129 37.5251L41.3699 38.2679C41.399 38.195 41.6417 37.5869 41.1485 37.0937L39.7343 38.5079ZM39.547 37.4493C39.5585 37.4262 39.5685 37.4119 39.573 37.4059L41.173 38.6059C41.2322 38.5269 41.2879 38.4397 41.3358 38.3437L39.547 37.4493ZM39.6659 37.2988C39.6709 37.2938 39.675 37.2899 39.6778 37.2872C39.6807 37.2844 39.6829 37.2825 39.6841 37.2813C39.6865 37.2791 39.6869 37.2788 39.6847 37.2808C39.6825 37.2826 39.6788 37.2858 39.6733 37.2903C39.6677 37.2949 39.6609 37.3004 39.6526 37.307L40.902 38.8688C40.9497 38.8306 41.0195 38.7736 41.0802 38.713L39.6659 37.2988ZM39.7628 37.2304C39.6865 37.2762 39.6084 37.329 39.532 37.3835L40.6945 39.011C40.7458 38.9744 40.777 38.9543 40.7918 38.9454L39.7628 37.2304ZM39.5586 37.3652C39.4405 37.4439 39.3354 37.5336 39.2421 37.6269L40.6563 39.0411C40.6641 39.0333 40.6692 39.0289 40.6714 39.027C40.6737 39.0251 40.6726 39.0263 40.668 39.0293L39.5586 37.3652ZM39.309 37.5658C39.1866 37.6678 39.0745 37.7886 38.9804 37.9297L40.6446 39.0391C40.6234 39.0708 40.6025 39.0913 40.5894 39.1022L39.309 37.5658ZM39.2578 37.6523C39.2125 37.6825 39.1245 37.7453 39.0379 37.8464C38.9589 37.9385 38.792 38.167 38.792 38.5083C38.792 38.8928 38.9994 39.1546 39.1569 39.2859C39.2971 39.4027 39.4353 39.4538 39.4963 39.4741L40.1287 37.5767C40.176 37.5925 40.304 37.6384 40.4373 37.7495C40.588 37.8751 40.792 38.1306 40.792 38.5083C40.792 38.8428 40.6285 39.0638 40.5564 39.148C40.4766 39.2411 40.3988 39.2954 40.3672 39.3164L39.2578 37.6523ZM39.8125 39.5254C39.7135 39.5254 39.5982 39.5085 39.4787 39.4607C39.3581 39.4124 39.2555 39.3416 39.1738 39.2598L40.588 37.8456C40.3699 37.6276 40.0872 37.5254 39.8125 37.5254V39.5254ZM39.5646 39.5014C39.3532 39.4309 39.1039 39.2585 38.9797 38.9481C38.8747 38.6854 38.9171 38.4626 38.9381 38.3786L40.8783 38.8636C40.9085 38.7432 40.9509 38.4907 40.8367 38.2053C40.7034 37.8721 40.4359 37.6837 40.1971 37.6041L39.5646 39.5014ZM38.9595 38.3049C38.9952 38.1977 39.0424 38.1187 39.075 38.0707C39.1088 38.0209 39.1408 37.9842 39.1624 37.9611C39.2041 37.9166 39.238 37.8902 39.2472 37.8832C39.2665 37.8683 39.266 37.8711 39.2266 37.894L40.2343 39.6216C40.3043 39.5808 40.3881 39.5288 40.4666 39.4684C40.5055 39.4385 40.5627 39.3916 40.6215 39.329C40.6666 39.2808 40.787 39.1469 40.8569 38.9373L38.9595 38.3049ZM39.1758 37.9258C38.9773 38.0581 38.8298 38.2296 38.7255 38.4121L40.462 39.4043C40.4306 39.4592 40.3742 39.5305 40.2852 39.5899L39.1758 37.9258ZM38.7617 38.3535C38.7111 38.4294 38.6627 38.5084 38.6161 38.5898L40.3526 39.5821C40.379 39.5359 40.4035 39.4964 40.4258 39.4629L38.7617 38.3535ZM38.5899 38.6387C38.591 38.6365 38.5898 38.6393 38.5849 38.6473C38.58 38.6552 38.5724 38.6668 38.5613 38.6824L40.1887 39.8449C40.2567 39.7498 40.3227 39.6454 40.3788 39.5332L38.5899 38.6387ZM38.6068 38.6235C38.6615 38.5579 38.7174 38.5223 38.7501 38.506L39.6445 40.2948C39.823 40.2056 39.9974 40.0788 40.1432 39.9039L38.6068 38.6235ZM38.7116 38.5262C38.4135 38.6919 38.1554 38.9236 37.9665 39.2259L39.6625 40.2859C39.6618 40.2868 39.661 40.288 39.66 40.2892C39.6591 40.2903 39.6586 40.2907 39.659 40.2904C39.6594 40.29 39.6658 40.284 39.6829 40.2745L38.7116 38.5262ZM37.957 39.2414C37.9252 39.2943 37.9023 39.3288 37.8879 39.3489C37.881 39.3586 37.878 39.3622 37.879 39.361C37.8796 39.3603 37.8874 39.3507 37.9023 39.3359L39.3165 40.7501C39.4625 40.6041 39.5824 40.4195 39.6719 40.2704L37.957 39.2414ZM37.862 39.3786C37.885 39.3526 37.8991 39.3415 37.8939 39.346C37.8901 39.3491 37.8778 39.3591 37.8538 39.3762C37.8051 39.411 37.7296 39.4601 37.6211 39.5245L38.6407 41.2451C38.8773 41.1048 39.167 40.9209 39.3568 40.7073L37.862 39.3786ZM37.6211 39.5245C37.4318 39.6366 37.1859 39.7557 36.875 39.8784L37.6094 41.7387C37.9912 41.588 38.3377 41.4246 38.6407 41.2451L37.6211 39.5245ZM36.8883 39.8733C36.6171 39.9759 36.3044 40.0611 35.9461 40.1248L36.2961 42.0939C36.7581 42.0118 37.1928 41.8965 37.5961 41.7439L36.8883 39.8733ZM35.925 40.1288C35.6292 40.188 35.3374 40.1942 35.0443 40.1486L34.7369 42.1248C35.2641 42.2068 35.7927 42.1949 36.3172 42.09L35.925 40.1288ZM35.0503 40.1496C34.5824 40.0739 34.1291 39.8945 33.6848 39.5958L32.5691 41.2557C33.2367 41.7045 33.9592 41.9991 34.7309 42.1239L35.0503 40.1496ZM33.6911 39.6001C33.1945 39.2607 32.7045 38.8595 32.2217 38.3937L30.833 39.8329C31.3893 40.3697 31.9657 40.8434 32.5628 41.2514L33.6911 39.6001ZM32.2345 38.4062C31.7472 37.9189 31.2714 37.3953 30.8073 36.8348L29.2669 38.1105C29.769 38.7167 30.2867 39.2868 30.8202 39.8204L32.2345 38.4062ZM30.8073 36.8348C30.3148 36.2401 29.8258 35.6766 29.3403 35.1444L27.8628 36.4923C28.3252 36.9992 28.7933 37.5385 29.2669 38.1105L30.8073 36.8348ZM29.3403 35.1444C28.837 34.5927 28.3225 34.1017 27.7961 33.6746L26.536 35.2277C26.9757 35.5845 27.4182 36.005 27.8628 36.4923L29.3403 35.1444ZM27.812 33.6878C27.2509 33.213 26.6414 32.8624 25.9825 32.6707L25.4238 34.5911C25.7674 34.691 26.1332 34.8872 26.5201 35.2146L27.812 33.6878ZM24.7031 33.6309C24.7031 34.0035 24.7078 34.4249 24.717 34.8946L26.7166 34.8554C26.7076 34.3954 26.7031 33.9874 26.7031 33.6309H24.7031ZM24.7176 34.9142C24.7355 35.3715 24.749 35.8476 24.758 36.3424L26.7576 36.306C26.7484 35.7983 26.7346 35.3082 26.716 34.8358L24.7176 34.9142ZM24.7585 36.3612C24.7765 36.8475 24.79 37.3291 24.799 37.806L26.7987 37.7682C26.7894 37.279 26.7756 36.7853 26.7571 36.2872L24.7585 36.3612ZM24.7996 37.8255C24.8176 38.2954 24.8311 38.7232 24.8401 39.1092L26.8396 39.0627C26.8303 38.6648 26.8165 38.2267 26.7981 37.7487L24.7996 37.8255ZM24.8409 39.1324C24.859 39.522 24.8725 39.8459 24.8815 40.1048L26.8803 40.0359C26.871 39.7661 26.8571 39.4337 26.8388 39.0395L24.8409 39.1324ZM24.8832 40.1391C24.8998 40.3798 24.9164 40.599 24.9355 40.7132L26.9083 40.3844C26.911 40.4007 26.9109 40.4041 26.9086 40.3824C26.9067 40.3648 26.9042 40.3388 26.9011 40.3028C26.895 40.231 26.8874 40.1312 26.8785 40.0015L24.8832 40.1391ZM24.9344 40.7068C24.9488 40.7968 24.9492 40.8305 24.9492 40.8257C24.9492 40.8228 24.949 40.7875 24.9593 40.7325C24.9646 40.7037 24.9743 40.6614 24.9924 40.6109C25.0103 40.5608 25.0401 40.4925 25.0898 40.418L26.7539 41.5274C26.9511 41.2316 26.9492 40.9129 26.9492 40.8257C26.9492 40.6796 26.9314 40.5287 26.9093 40.3908L24.9344 40.7068ZM25.141 40.348C25.2416 40.2222 25.3477 40.1622 25.3926 40.1398C25.4409 40.1156 25.4693 40.1097 25.4606 40.1119L25.9457 42.0522C26.0988 42.0139 26.4506 41.9125 26.7027 41.5974L25.141 40.348ZM25.3317 40.1536C25.4593 40.1025 25.594 40.0848 25.7219 40.0964C25.8445 40.1075 25.939 40.1435 25.9999 40.1739L25.1055 41.9628C25.348 42.084 25.7008 42.16 26.0745 42.0105L25.3317 40.1536ZM25.9241 40.1399C25.3949 39.9282 24.9572 40.1786 24.7622 40.3412L26.0425 41.8776C25.9981 41.9146 25.8985 41.9876 25.7441 42.0297C25.5725 42.0765 25.3728 42.0734 25.1813 41.9968L25.9241 40.1399ZM24.6952 40.4023C24.5436 40.5539 24.4319 40.745 24.3775 40.9625L26.3178 41.4476C26.2816 41.5923 26.2064 41.7196 26.1095 41.8165L24.6952 40.4023ZM24.3775 40.9625C24.3875 40.9225 24.4005 40.8906 24.4122 40.8672L26.2011 41.7617C26.2492 41.6654 26.2896 41.5605 26.3178 41.4476L24.3775 40.9625ZM24.3782 40.9431C24.4353 40.8003 24.5224 40.7077 24.5862 40.6566L25.8356 42.2184C25.9906 42.0944 26.1416 41.9197 26.2351 41.6858L24.3782 40.9431ZM24.5038 40.7304C24.5967 40.6375 24.6824 40.5952 24.7094 40.5826C24.7419 40.5674 24.7569 40.5646 24.7427 40.5684L25.269 42.498C25.3986 42.4626 25.6862 42.3764 25.918 42.1446L24.5038 40.7304ZM24.6345 40.6047C24.7198 40.5706 24.7974 40.5605 24.8555 40.5605V42.5605C25.0229 42.5605 25.2008 42.5323 25.3773 42.4617L24.6345 40.6047ZM24.8555 40.5605C24.8554 40.5605 24.8553 40.5605 24.8552 40.5605C24.8551 40.5605 24.855 40.5605 24.8549 40.5605C24.8548 40.5605 24.8548 40.5605 24.8547 40.5605C24.8546 40.5605 24.8545 40.5605 24.8544 40.5605C24.8543 40.5605 24.8542 40.5605 24.8541 40.5605C24.854 40.5605 24.854 40.5605 24.8539 40.5605C24.8538 40.5605 24.8537 40.5605 24.8536 40.5605C24.8535 40.5605 24.8534 40.5605 24.8533 40.5605C24.8532 40.5605 24.8531 40.5605 24.8531 40.5605C24.853 40.5605 24.8529 40.5605 24.8528 40.5605C24.8527 40.5605 24.8526 40.5605 24.8525 40.5605C24.8524 40.5605 24.8523 40.5605 24.8522 40.5605C24.8522 40.5605 24.8521 40.5605 24.852 40.5605C24.8519 40.5605 24.8518 40.5605 24.8517 40.5605C24.8516 40.5605 24.8515 40.5605 24.8514 40.5605C24.8513 40.5605 24.8513 40.5605 24.8512 40.5605C24.8511 40.5605 24.851 40.5605 24.8509 40.5605C24.8508 40.5605 24.8507 40.5605 24.8506 40.5605C24.8505 40.5605 24.8504 40.5605 24.8504 40.5605C24.8503 40.5605 24.8502 40.5605 24.8501 40.5605C24.85 40.5605 24.8499 40.5605 24.8498 40.5605C24.8497 40.5605 24.8496 40.5605 24.8495 40.5605C24.8495 40.5605 24.8494 40.5605 24.8493 40.5605C24.8492 40.5605 24.8491 40.5605 24.849 40.5605C24.8489 40.5605 24.8488 40.5605 24.8487 40.5605C24.8486 40.5605 24.8485 40.5605 24.8485 40.5605C24.8484 40.5605 24.8483 40.5605 24.8482 40.5605C24.8481 40.5605 24.848 40.5605 24.8479 40.5605C24.8478 40.5605 24.8477 40.5605 24.8476 40.5605C24.8475 40.5605 24.8475 40.5605 24.8474 40.5605C24.8473 40.5605 24.8472 40.5605 24.8471 40.5605C24.847 40.5605 24.8469 40.5605 24.8468 40.5605C24.8467 40.5605 24.8466 40.5605 24.8465 40.5605C24.8465 40.5605 24.8464 40.5605 24.8463 40.5605C24.8462 40.5605 24.8461 40.5605 24.846 40.5605C24.8459 40.5605 24.8458 40.5605 24.8457 40.5605C24.8456 40.5605 24.8455 40.5605 24.8454 40.5605C24.8454 40.5605 24.8453 40.5605 24.8452 40.5605C24.8451 40.5605 24.845 40.5605 24.8449 40.5605C24.8448 40.5605 24.8447 40.5605 24.8446 40.5605C24.8445 40.5605 24.8444 40.5605 24.8443 40.5605C24.8443 40.5605 24.8442 40.5605 24.8441 40.5605C24.844 40.5605 24.8439 40.5605 24.8438 40.5605C24.8437 40.5605 24.8436 40.5605 24.8435 40.5605C24.8434 40.5605 24.8433 40.5605 24.8432 40.5605C24.8431 40.5605 24.8431 40.5605 24.843 40.5605C24.8429 40.5605 24.8428 40.5605 24.8427 40.5605C24.8426 40.5605 24.8425 40.5605 24.8424 40.5605C24.8423 40.5605 24.8422 40.5605 24.8421 40.5605C24.842 40.5605 24.8419 40.5605 24.8419 40.5605C24.8418 40.5605 24.8417 40.5605 24.8416 40.5605C24.8415 40.5605 24.8414 40.5605 24.8413 40.5605C24.8412 40.5605 24.8411 40.5605 24.841 40.5605C24.8409 40.5605 24.8408 40.5605 24.8407 40.5605C24.8407 40.5605 24.8406 40.5605 24.8405 40.5605C24.8404 40.5605 24.8403 40.5605 24.8402 40.5605C24.8401 40.5605 24.84 40.5605 24.8399 40.5605C24.8398 40.5605 24.8397 40.5605 24.8396 40.5605C24.8395 40.5605 24.8394 40.5605 24.8394 40.5605C24.8393 40.5605 24.8392 40.5605 24.8391 40.5605C24.839 40.5605 24.8389 40.5605 24.8388 40.5605C24.8387 40.5605 24.8386 40.5605 24.8385 40.5605C24.8384 40.5605 24.8383 40.5605 24.8382 40.5605C24.8381 40.5605 24.838 40.5605 24.838 40.5605C24.8379 40.5605 24.8378 40.5605 24.8377 40.5605C24.8376 40.5605 24.8375 40.5605 24.8374 40.5605C24.8373 40.5605 24.8372 40.5605 24.8371 40.5605C24.837 40.5605 24.8369 40.5605 24.8368 40.5605C24.8367 40.5605 24.8366 40.5605 24.8365 40.5605C24.8365 40.5605 24.8364 40.5605 24.8363 40.5605C24.8362 40.5605 24.8361 40.5605 24.836 40.5605C24.8359 40.5605 24.8358 40.5605 24.8357 40.5605C24.8356 40.5605 24.8355 40.5605 24.8354 40.5605C24.8353 40.5605 24.8352 40.5605 24.8351 40.5605C24.835 40.5605 24.8349 40.5605 24.8349 40.5605C24.8348 40.5605 24.8347 40.5605 24.8346 40.5605C24.8345 40.5605 24.8344 40.5605 24.8343 40.5605C24.8342 40.5605 24.8341 40.5605 24.834 40.5605C24.8339 40.5605 24.8338 40.5605 24.8337 40.5605C24.8336 40.5605 24.8335 40.5605 24.8334 40.5605C24.8333 40.5605 24.8332 40.5605 24.8332 40.5605C24.8331 40.5605 24.833 40.5605 24.8329 40.5605C24.8328 40.5605 24.8327 40.5605 24.8326 40.5605C24.8325 40.5605 24.8324 40.5605 24.8323 40.5605C24.8322 40.5605 24.8321 40.5605 24.832 40.5605C24.8319 40.5605 24.8318 40.5605 24.8317 40.5605C24.8316 40.5605 24.8315 40.5605 24.8314 40.5605C24.8314 40.5605 24.8313 40.5605 24.8312 40.5605C24.8311 40.5605 24.831 40.5605 24.8309 40.5605C24.8308 40.5605 24.8307 40.5605 24.8306 40.5605C24.8305 40.5605 24.8304 40.5605 24.8303 40.5605C24.8302 40.5605 24.8301 40.5605 24.83 40.5605C24.8299 40.5605 24.8298 40.5605 24.8297 40.5605C24.8296 40.5605 24.8295 40.5605 24.8294 40.5605C24.8294 40.5605 24.8293 40.5605 24.8292 40.5605C24.8291 40.5605 24.829 40.5605 24.8289 40.5605C24.8288 40.5605 24.8287 40.5605 24.8286 40.5605C24.8285 40.5605 24.8284 40.5605 24.8283 40.5605C24.8282 40.5605 24.8281 40.5605 24.828 40.5605C24.8279 40.5605 24.8278 40.5605 24.8277 40.5605C24.8276 40.5605 24.8275 40.5605 24.8274 40.5605C24.8273 40.5605 24.8272 40.5605 24.8271 40.5605C24.8271 40.5605 24.827 40.5605 24.8269 40.5605C24.8268 40.5605 24.8267 40.5605 24.8266 40.5605C24.8265 40.5605 24.8264 40.5605 24.8263 40.5605C24.8262 40.5605 24.8261 40.5605 24.826 40.5605C24.8259 40.5605 24.8258 40.5605 24.8257 40.5605C24.8256 40.5605 24.8255 40.5605 24.8254 40.5605C24.8253 40.5605 24.8252 40.5605 24.8251 40.5605C24.825 40.5605 24.8249 40.5605 24.8248 40.5605C24.8247 40.5605 24.8246 40.5605 24.8245 40.5605C24.8244 40.5605 24.8243 40.5605 24.8243 40.5605C24.8242 40.5605 24.8241 40.5605 24.824 40.5605C24.8239 40.5605 24.8238 40.5605 24.8237 40.5605C24.8236 40.5605 24.8235 40.5605 24.8234 40.5605C24.8233 40.5605 24.8232 40.5605 24.8231 40.5605C24.823 40.5605 24.8229 40.5605 24.8228 40.5605C24.8227 40.5605 24.8226 40.5605 24.8225 40.5605C24.8224 40.5605 24.8223 40.5605 24.8222 40.5605C24.8221 40.5605 24.822 40.5605 24.8219 40.5605C24.8218 40.5605 24.8217 40.5605 24.8216 40.5605C24.8215 40.5605 24.8214 40.5605 24.8213 40.5605C24.8212 40.5605 24.8211 40.5605 24.821 40.5605C24.8209 40.5605 24.8209 40.5605 24.8208 40.5605C24.8207 40.5605 24.8206 40.5605 24.8205 40.5605C24.8204 40.5605 24.8203 40.5605 24.8202 40.5605C24.8201 40.5605 24.82 40.5605 24.8199 40.5605C24.8198 40.5605 24.8197 40.5605 24.8196 40.5605C24.8195 40.5605 24.8194 40.5605 24.8193 40.5605C24.8192 40.5605 24.8191 40.5605 24.819 40.5605C24.8189 40.5605 24.8188 40.5605 24.8187 40.5605C24.8186 40.5605 24.8185 40.5605 24.8184 40.5605C24.8183 40.5605 24.8182 40.5605 24.8181 40.5605C24.818 40.5605 24.8179 40.5605 24.8178 40.5605C24.8177 40.5605 24.8176 40.5605 24.8175 40.5605C24.8174 40.5605 24.8173 40.5605 24.8172 40.5605C24.8171 40.5605 24.817 40.5605 24.8169 40.5605C24.8168 40.5605 24.8167 40.5605 24.8166 40.5605C24.8165 40.5605 24.8164 40.5605 24.8163 40.5605C24.8162 40.5605 24.8161 40.5605 24.816 40.5605C24.8159 40.5605 24.8158 40.5605 24.8157 40.5605C24.8156 40.5605 24.8155 40.5605 24.8154 40.5605C24.8153 40.5605 24.8152 40.5605 24.8152 40.5605C24.8151 40.5605 24.815 40.5605 24.8149 40.5605C24.8148 40.5605 24.8147 40.5605 24.8146 40.5605C24.8145 40.5605 24.8144 40.5605 24.8143 40.5605C24.8142 40.5605 24.8141 40.5605 24.814 40.5605C24.8139 40.5605 24.8138 40.5605 24.8137 40.5605C24.8136 40.5605 24.8135 40.5605 24.8134 40.5605C24.8133 40.5605 24.8132 40.5605 24.8131 40.5605C24.813 40.5605 24.8129 40.5605 24.8128 40.5605C24.8127 40.5605 24.8126 40.5605 24.8125 40.5605C24.8124 40.5605 24.8123 40.5605 24.8122 40.5605C24.8121 40.5605 24.812 40.5605 24.8119 40.5605C24.8118 40.5605 24.8117 40.5605 24.8116 40.5605C24.8115 40.5605 24.8114 40.5605 24.8113 40.5605C24.8112 40.5605 24.8111 40.5605 24.811 40.5605C24.8109 40.5605 24.8108 40.5605 24.8107 40.5605C24.8106 40.5605 24.8105 40.5605 24.8104 40.5605C24.8103 40.5605 24.8102 40.5605 24.8101 40.5605C24.81 40.5605 24.8099 40.5605 24.8098 40.5605C24.8097 40.5605 24.8096 40.5605 24.8095 40.5605C24.8094 40.5605 24.8093 40.5605 24.8092 40.5605C24.8091 40.5605 24.809 40.5605 24.8089 40.5605C24.8088 40.5605 24.8087 40.5605 24.8086 40.5605C24.8085 40.5605 24.8084 40.5605 24.8083 40.5605C24.8082 40.5605 24.8081 40.5605 24.808 40.5605C24.8079 40.5605 24.8078 40.5605 24.8077 40.5605C24.8076 40.5605 24.8075 40.5605 24.8074 40.5605C24.8073 40.5605 24.8072 40.5605 24.8071 40.5605C24.807 40.5605 24.8069 40.5605 24.8068 40.5605C24.8067 40.5605 24.8066 40.5605 24.8065 40.5605C24.8064 40.5605 24.8063 40.5605 24.8062 40.5605C24.806 40.5605 24.8059 40.5605 24.8058 40.5605C24.8057 40.5605 24.8056 40.5605 24.8055 40.5605C24.8054 40.5605 24.8053 40.5605 24.8052 40.5605C24.8051 40.5605 24.805 40.5605 24.8049 40.5605C24.8048 40.5605 24.8047 40.5605 24.8046 40.5605C24.8045 40.5605 24.8044 40.5605 24.8043 40.5605C24.8042 40.5605 24.8041 40.5605 24.804 40.5605C24.8039 40.5605 24.8038 40.5605 24.8037 40.5605C24.8036 40.5605 24.8035 40.5605 24.8034 40.5605C24.8033 40.5605 24.8032 40.5605 24.8031 40.5605C24.803 40.5605 24.8029 40.5605 24.8028 40.5605C24.8027 40.5605 24.8026 40.5605 24.8025 40.5605C24.8024 40.5605 24.8023 40.5605 24.8022 40.5605C24.8021 40.5605 24.802 40.5605 24.8019 40.5605C24.8018 40.5605 24.8017 40.5605 24.8016 40.5605C24.8015 40.5605 24.8014 40.5605 24.8013 40.5605C24.8012 40.5605 24.8011 40.5605 24.801 40.5605C24.8009 40.5605 24.8008 40.5605 24.8007 40.5605C24.8006 40.5605 24.8005 40.5605 24.8004 40.5605C24.8003 40.5605 24.8001 40.5605 24.8 40.5605C24.7999 40.5605 24.7998 40.5605 24.7997 40.5605C24.7996 40.5605 24.7995 40.5605 24.7994 40.5605C24.7993 40.5605 24.7992 40.5605 24.7991 40.5605C24.799 40.5605 24.7989 40.5605 24.7988 40.5605C24.7987 40.5605 24.7986 40.5605 24.7985 40.5605C24.7984 40.5605 24.7983 40.5605 24.7982 40.5605C24.7981 40.5605 24.798 40.5605 24.7979 40.5605C24.7978 40.5605 24.7977 40.5605 24.7976 40.5605C24.7975 40.5605 24.7974 40.5605 24.7973 40.5605C24.7972 40.5605 24.7971 40.5605 24.797 40.5605C24.7969 40.5605 24.7968 40.5605 24.7967 40.5605C24.7966 40.5605 24.7964 40.5605 24.7963 40.5605C24.7962 40.5605 24.7961 40.5605 24.796 40.5605C24.7959 40.5605 24.7958 40.5605 24.7957 40.5605C24.7956 40.5605 24.7955 40.5605 24.7954 40.5605C24.7953 40.5605 24.7952 40.5605 24.7951 40.5605C24.795 40.5605 24.7949 40.5605 24.7948 40.5605C24.7947 40.5605 24.7946 40.5605 24.7945 40.5605C24.7944 40.5605 24.7943 40.5605 24.7942 40.5605C24.7941 40.5605 24.794 40.5605 24.7939 40.5605C24.7938 40.5605 24.7937 40.5605 24.7935 40.5605C24.7934 40.5605 24.7933 40.5605 24.7932 40.5605C24.7931 40.5605 24.793 40.5605 24.7929 40.5605C24.7928 40.5605 24.7927 40.5605 24.7926 40.5605C24.7925 40.5605 24.7924 40.5605 24.7923 40.5605C24.7922 40.5605 24.7921 40.5605 24.792 40.5605C24.7919 40.5605 24.7918 40.5605 24.7917 40.5605C24.7916 40.5605 24.7915 40.5605 24.7914 40.5605C24.7913 40.5605 24.7912 40.5605 24.791 40.5605C24.7909 40.5605 24.7908 40.5605 24.7907 40.5605C24.7906 40.5605 24.7905 40.5605 24.7904 40.5605C24.7903 40.5605 24.7902 40.5605 24.7901 40.5605C24.79 40.5605 24.7899 40.5605 24.7898 40.5605C24.7897 40.5605 24.7896 40.5605 24.7895 40.5605C24.7894 40.5605 24.7893 40.5605 24.7892 40.5605C24.7891 40.5605 24.789 40.5605 24.7888 40.5605C24.7887 40.5605 24.7886 40.5605 24.7885 40.5605C24.7884 40.5605 24.7883 40.5605 24.7882 40.5605C24.7881 40.5605 24.788 40.5605 24.7879 40.5605C24.7878 40.5605 24.7877 40.5605 24.7876 40.5605C24.7875 40.5605 24.7874 40.5605 24.7873 40.5605C24.7872 40.5605 24.7871 40.5605 24.787 40.5605C24.7869 40.5605 24.7867 40.5605 24.7866 40.5605C24.7865 40.5605 24.7864 40.5605 24.7863 40.5605C24.7862 40.5605 24.7861 40.5605 24.786 40.5605C24.7859 40.5605 24.7858 40.5605 24.7857 40.5605C24.7856 40.5605 24.7855 40.5605 24.7854 40.5605C24.7853 40.5605 24.7852 40.5605 24.7851 40.5605C24.785 40.5605 24.7848 40.5605 24.7847 40.5605C24.7846 40.5605 24.7845 40.5605 24.7844 40.5605C24.7843 40.5605 24.7842 40.5605 24.7841 40.5605C24.784 40.5605 24.7839 40.5605 24.7838 40.5605C24.7837 40.5605 24.7836 40.5605 24.7835 40.5605C24.7834 40.5605 24.7833 40.5605 24.7831 40.5605C24.783 40.5605 24.7829 40.5605 24.7828 40.5605C24.7827 40.5605 24.7826 40.5605 24.7825 40.5605C24.7824 40.5605 24.7823 40.5605 24.7822 40.5605C24.7821 40.5605 24.782 40.5605 24.7819 40.5605C24.7818 40.5605 24.7817 40.5605 24.7816 40.5605C24.7814 40.5605 24.7813 40.5605 24.7812 40.5605C24.7811 40.5605 24.781 40.5605 24.7809 40.5605C24.7808 40.5605 24.7807 40.5605 24.7806 40.5605C24.7805 40.5605 24.7804 40.5605 24.7803 40.5605C24.7802 40.5605 24.7801 40.5605 24.78 40.5605C24.7798 40.5605 24.7797 40.5605 24.7796 40.5605C24.7795 40.5605 24.7794 40.5605 24.7793 40.5605C24.7792 40.5605 24.7791 40.5605 24.779 40.5605C24.7789 40.5605 24.7788 40.5605 24.7787 40.5605C24.7786 40.5605 24.7785 40.5605 24.7783 40.5605C24.7782 40.5605 24.7781 40.5605 24.778 40.5605C24.7779 40.5605 24.7778 40.5605 24.7777 40.5605C24.7776 40.5605 24.7775 40.5605 24.7774 40.5605C24.7773 40.5605 24.7772 40.5605 24.7771 40.5605C24.777 40.5605 24.7768 40.5605 24.7767 40.5605C24.7766 40.5605 24.7765 40.5605 24.7764 40.5605C24.7763 40.5605 24.7762 40.5605 24.7761 40.5605C24.776 40.5605 24.7759 40.5605 24.7758 40.5605C24.7757 40.5605 24.7756 40.5605 24.7754 40.5605C24.7753 40.5605 24.7752 40.5605 24.7751 40.5605C24.775 40.5605 24.7749 40.5605 24.7748 40.5605C24.7747 40.5605 24.7746 40.5605 24.7745 40.5605C24.7744 40.5605 24.7743 40.5605 24.7741 40.5605C24.774 40.5605 24.7739 40.5605 24.7738 40.5605C24.7737 40.5605 24.7736 40.5605 24.7735 40.5605C24.7734 40.5605 24.7733 40.5605 24.7732 40.5605C24.7731 40.5605 24.773 40.5605 24.7728 40.5605C24.7727 40.5605 24.7726 40.5605 24.7725 40.5605C24.7724 40.5605 24.7723 40.5605 24.7722 40.5605C24.7721 40.5605 24.772 40.5605 24.7719 40.5605C24.7718 40.5605 24.7717 40.5605 24.7715 40.5605C24.7714 40.5605 24.7713 40.5605 24.7712 40.5605C24.7711 40.5605 24.771 40.5605 24.7709 40.5605C24.7708 40.5605 24.7707 40.5605 24.7706 40.5605C24.7705 40.5605 24.7703 40.5605 24.7702 40.5605C24.7701 40.5605 24.77 40.5605 24.7699 40.5605C24.7698 40.5605 24.7697 40.5605 24.7696 40.5605C24.7695 40.5605 24.7694 40.5605 24.7693 40.5605C24.7691 40.5605 24.769 40.5605 24.7689 40.5605C24.7688 40.5605 24.7687 40.5605 24.7686 40.5605C24.7685 40.5605 24.7684 40.5605 24.7683 40.5605C24.7682 40.5605 24.7681 40.5605 24.7679 40.5605C24.7678 40.5605 24.7677 40.5605 24.7676 40.5605C24.7675 40.5605 24.7674 40.5605 24.7673 40.5605C24.7672 40.5605 24.7671 40.5605 24.767 40.5605C24.7669 40.5605 24.7667 40.5605 24.7666 40.5605C24.7665 40.5605 24.7664 40.5605 24.7663 40.5605C24.7662 40.5605 24.7661 40.5605 24.766 40.5605C24.7659 40.5605 24.7658 40.5605 24.7656 40.5605C24.7655 40.5605 24.7654 40.5605 24.7653 40.5605C24.7652 40.5605 24.7651 40.5605 24.765 40.5605C24.7649 40.5605 24.7648 40.5605 24.7647 40.5605C24.7645 40.5605 24.7644 40.5605 24.7643 40.5605C24.7642 40.5605 24.7641 40.5605 24.764 40.5605C24.7639 40.5605 24.7638 40.5605 24.7637 40.5605C24.7635 40.5605 24.7634 40.5605 24.7633 40.5605C24.7632 40.5605 24.7631 40.5605 24.763 40.5605C24.7629 40.5605 24.7628 40.5605 24.7627 40.5605C24.7626 40.5605 24.7624 40.5605 24.7623 40.5605C24.7622 40.5605 24.7621 40.5605 24.762 40.5605C24.7619 40.5605 24.7618 40.5605 24.7617 40.5605C24.7616 40.5605 24.7614 40.5605 24.7613 40.5605C24.7612 40.5605 24.7611 40.5605 24.761 40.5605C24.7609 40.5605 24.7608 40.5605 24.7607 40.5605C24.7606 40.5605 24.7604 40.5605 24.7603 40.5605C24.7602 40.5605 24.7601 40.5605 24.76 40.5605C24.7599 40.5605 24.7598 40.5605 24.7597 40.5605C24.7596 40.5605 24.7594 40.5605 24.7593 40.5605C24.7592 40.5605 24.7591 40.5605 24.759 40.5605C24.7589 40.5605 24.7588 40.5605 24.7587 40.5605C24.7586 40.5605 24.7584 40.5605 24.7583 40.5605C24.7582 40.5605 24.7581 40.5605 24.758 40.5605C24.7579 40.5605 24.7578 40.5605 24.7577 40.5605C24.7576 40.5605 24.7574 40.5605 24.7573 40.5605C24.7572 40.5605 24.7571 40.5605 24.757 40.5605C24.7569 40.5605 24.7568 40.5605 24.7567 40.5605C24.7565 40.5605 24.7564 40.5605 24.7563 40.5605C24.7562 40.5605 24.7561 40.5605 24.756 40.5605C24.7559 40.5605 24.7558 40.5605 24.7557 40.5605C24.7555 40.5605 24.7554 40.5605 24.7553 40.5605C24.7552 40.5605 24.7551 40.5605 24.755 40.5605C24.7549 40.5605 24.7548 40.5605 24.7546 40.5605C24.7545 40.5605 24.7544 40.5605 24.7543 40.5605C24.7542 40.5605 24.7541 40.5605 24.754 40.5605C24.7539 40.5605 24.7537 40.5605 24.7536 40.5605C24.7535 40.5605 24.7534 40.5605 24.7533 40.5605C24.7532 40.5605 24.7531 40.5605 24.753 40.5605C24.7528 40.5605 24.7527 40.5605 24.7526 40.5605C24.7525 40.5605 24.7524 40.5605 24.7523 40.5605C24.7522 40.5605 24.7521 40.5605 24.7519 40.5605C24.7518 40.5605 24.7517 40.5605 24.7516 40.5605C24.7515 40.5605 24.7514 40.5605 24.7513 40.5605C24.7512 40.5605 24.751 40.5605 24.7509 40.5605C24.7508 40.5605 24.7507 40.5605 24.7506 40.5605C24.7505 40.5605 24.7504 40.5605 24.7503 40.5605C24.7501 40.5605 24.75 40.5605 24.7499 40.5605C24.7498 40.5605 24.7497 40.5605 24.7496 40.5605C24.7495 40.5605 24.7493 40.5605 24.7492 40.5605C24.7491 40.5605 24.749 40.5605 24.7489 40.5605C24.7488 40.5605 24.7487 40.5605 24.7486 40.5605C24.7484 40.5605 24.7483 40.5605 24.7482 40.5605C24.7481 40.5605 24.748 40.5605 24.7479 40.5605C24.7478 40.5605 24.7476 40.5605 24.7475 40.5605C24.7474 40.5605 24.7473 40.5605 24.7472 40.5605C24.7471 40.5605 24.747 40.5605 24.7468 40.5605C24.7467 40.5605 24.7466 40.5605 24.7465 40.5605C24.7464 40.5605 24.7463 40.5605 24.7462 40.5605C24.746 40.5605 24.7459 40.5605 24.7458 40.5605C24.7457 40.5605 24.7456 40.5605 24.7455 40.5605C24.7454 40.5605 24.7452 40.5605 24.7451 40.5605C24.745 40.5605 24.7449 40.5605 24.7448 40.5605C24.7447 40.5605 24.7446 40.5605 24.7444 40.5605C24.7443 40.5605 24.7442 40.5605 24.7441 40.5605C24.744 40.5605 24.7439 40.5605 24.7438 40.5605C24.7436 40.5605 24.7435 40.5605 24.7434 40.5605C24.7433 40.5605 24.7432 40.5605 24.7431 40.5605C24.743 40.5605 24.7428 40.5605 24.7427 40.5605C24.7426 40.5605 24.7425 40.5605 24.7424 40.5605C24.7423 40.5605 24.7422 40.5605 24.742 40.5605C24.7419 40.5605 24.7418 40.5605 24.7417 40.5605C24.7416 40.5605 24.7415 40.5605 24.7414 40.5605C24.7412 40.5605 24.7411 40.5605 24.741 40.5605C24.7409 40.5605 24.7408 40.5605 24.7407 40.5605C24.7405 40.5605 24.7404 40.5605 24.7403 40.5605C24.7402 40.5605 24.7401 40.5605 24.74 40.5605C24.7399 40.5605 24.7397 40.5605 24.7396 40.5605C24.7395 40.5605 24.7394 40.5605 24.7393 40.5605C24.7392 40.5605 24.7391 40.5605 24.7389 40.5605C24.7388 40.5605 24.7387 40.5605 24.7386 40.5605C24.7385 40.5605 24.7384 40.5605 24.7382 40.5605C24.7381 40.5605 24.738 40.5605 24.7379 40.5605C24.7378 40.5605 24.7377 40.5605 24.7375 40.5605C24.7374 40.5605 24.7373 40.5605 24.7372 40.5605C24.7371 40.5605 24.737 40.5605 24.7369 40.5605C24.7367 40.5605 24.7366 40.5605 24.7365 40.5605C24.7364 40.5605 24.7363 40.5605 24.7362 40.5605C24.736 40.5605 24.7359 40.5605 24.7358 40.5605C24.7357 40.5605 24.7356 40.5605 24.7355 40.5605C24.7353 40.5605 24.7352 40.5605 24.7351 40.5605C24.735 40.5605 24.7349 40.5605 24.7348 40.5605C24.7346 40.5605 24.7345 40.5605 24.7344 40.5605C24.7343 40.5605 24.7342 40.5605 24.7341 40.5605C24.734 40.5605 24.7338 40.5605 24.7337 40.5605C24.7336 40.5605 24.7335 40.5605 24.7334 40.5605C24.7333 40.5605 24.7331 40.5605 24.733 40.5605C24.7329 40.5605 24.7328 40.5605 24.7327 40.5605C24.7326 40.5605 24.7324 40.5605 24.7323 40.5605C24.7322 40.5605 24.7321 40.5605 24.732 40.5605C24.7319 40.5605 24.7317 40.5605 24.7316 40.5605C24.7315 40.5605 24.7314 40.5605 24.7313 40.5605C24.7311 40.5605 24.731 40.5605 24.7309 40.5605C24.7308 40.5605 24.7307 40.5605 24.7306 40.5605C24.7304 40.5605 24.7303 40.5605 24.7302 40.5605C24.7301 40.5605 24.73 40.5605 24.7299 40.5605C24.7297 40.5605 24.7296 40.5605 24.7295 40.5605C24.7294 40.5605 24.7293 40.5605 24.7292 40.5605C24.729 40.5605 24.7289 40.5605 24.7288 40.5605C24.7287 40.5605 24.7286 40.5605 24.7285 40.5605C24.7283 40.5605 24.7282 40.5605 24.7281 40.5605C24.728 40.5605 24.7279 40.5605 24.7277 40.5605C24.7276 40.5605 24.7275 40.5605 24.7274 40.5605C24.7273 40.5605 24.7272 40.5605 24.727 40.5605C24.7269 40.5605 24.7268 40.5605 24.7267 40.5605C24.7266 40.5605 24.7265 40.5605 24.7263 40.5605C24.7262 40.5605 24.7261 40.5605 24.726 40.5605C24.7259 40.5605 24.7257 40.5605 24.7256 40.5605C24.7255 40.5605 24.7254 40.5605 24.7253 40.5605C24.7252 40.5605 24.725 40.5605 24.7249 40.5605C24.7248 40.5605 24.7247 40.5605 24.7246 40.5605C24.7244 40.5605 24.7243 40.5605 24.7242 40.5605C24.7241 40.5605 24.724 40.5605 24.7239 40.5605C24.7237 40.5605 24.7236 40.5605 24.7235 40.5605C24.7234 40.5605 24.7233 40.5605 24.7231 40.5605C24.723 40.5605 24.7229 40.5605 24.7228 40.5605C24.7227 40.5605 24.7225 40.5605 24.7224 40.5605C24.7223 40.5605 24.7222 40.5605 24.7221 40.5605C24.722 40.5605 24.7218 40.5605 24.7217 40.5605C24.7216 40.5605 24.7215 40.5605 24.7214 40.5605C24.7212 40.5605 24.7211 40.5605 24.721 40.5605C24.7209 40.5605 24.7208 40.5605 24.7206 40.5605C24.7205 40.5605 24.7204 40.5605 24.7203 40.5605C24.7202 40.5605 24.7201 40.5605 24.7199 40.5605C24.7198 40.5605 24.7197 40.5605 24.7196 40.5605C24.7195 40.5605 24.7193 40.5605 24.7192 40.5605C24.7191 40.5605 24.719 40.5605 24.7189 40.5605C24.7187 40.5605 24.7186 40.5605 24.7185 40.5605C24.7184 40.5605 24.7183 40.5605 24.7181 40.5605C24.718 40.5605 24.7179 40.5605 24.7178 40.5605C24.7177 40.5605 24.7175 40.5605 24.7174 40.5605C24.7173 40.5605 24.7172 40.5605 24.7171 40.5605C24.7169 40.5605 24.7168 40.5605 24.7167 40.5605C24.7166 40.5605 24.7165 40.5605 24.7163 40.5605C24.7162 40.5605 24.7161 40.5605 24.716 40.5605C24.7159 40.5605 24.7157 40.5605 24.7156 40.5605C24.7155 40.5605 24.7154 40.5605 24.7153 40.5605C24.7151 40.5605 24.715 40.5605 24.7149 40.5605C24.7148 40.5605 24.7147 40.5605 24.7145 40.5605C24.7144 40.5605 24.7143 40.5605 24.7142 40.5605C24.7141 40.5605 24.7139 40.5605 24.7138 40.5605C24.7137 40.5605 24.7136 40.5605 24.7135 40.5605C24.7133 40.5605 24.7132 40.5605 24.7131 40.5605C24.713 40.5605 24.7129 40.5605 24.7127 40.5605C24.7126 40.5605 24.7125 40.5605 24.7124 40.5605C24.7123 40.5605 24.7121 40.5605 24.712 40.5605C24.7119 40.5605 24.7118 40.5605 24.7117 40.5605C24.7115 40.5605 24.7114 40.5605 24.7113 40.5605C24.7112 40.5605 24.711 40.5605 24.7109 40.5605C24.7108 40.5605 24.7107 40.5605 24.7106 40.5605C24.7104 40.5605 24.7103 40.5605 24.7102 40.5605C24.7101 40.5605 24.71 40.5605 24.7098 40.5605C24.7097 40.5605 24.7096 40.5605 24.7095 40.5605C24.7094 40.5605 24.7092 40.5605 24.7091 40.5605C24.709 40.5605 24.7089 40.5605 24.7087 40.5605C24.7086 40.5605 24.7085 40.5605 24.7084 40.5605C24.7083 40.5605 24.7081 40.5605 24.708 40.5605C24.7079 40.5605 24.7078 40.5605 24.7077 40.5605C24.7075 40.5605 24.7074 40.5605 24.7073 40.5605C24.7072 40.5605 24.707 40.5605 24.7069 40.5605C24.7068 40.5605 24.7067 40.5605 24.7066 40.5605C24.7064 40.5605 24.7063 40.5605 24.7062 40.5605C24.7061 40.5605 24.7059 40.5605 24.7058 40.5605C24.7057 40.5605 24.7056 40.5605 24.7055 40.5605C24.7053 40.5605 24.7052 40.5605 24.7051 40.5605C24.705 40.5605 24.7049 40.5605 24.7047 40.5605C24.7046 40.5605 24.7045 40.5605 24.7044 40.5605C24.7042 40.5605 24.7041 40.5605 24.704 40.5605C24.7039 40.5605 24.7038 40.5605 24.7036 40.5605C24.7035 40.5605 24.7034 40.5605 24.7033 40.5605C24.7031 40.5605 24.703 40.5605 24.7029 40.5605C24.7028 40.5605 24.7027 40.5605 24.7025 40.5605C24.7024 40.5605 24.7023 40.5605 24.7022 40.5605C24.702 40.5605 24.7019 40.5605 24.7018 40.5605C24.7017 40.5605 24.7015 40.5605 24.7014 40.5605C24.7013 40.5605 24.7012 40.5605 24.7011 40.5605C24.7009 40.5605 24.7008 40.5605 24.7007 40.5605C24.7006 40.5605 24.7004 40.5605 24.7003 40.5605C24.7002 40.5605 24.7001 40.5605 24.6999 40.5605C24.6998 40.5605 24.6997 40.5605 24.6996 40.5605C24.6995 40.5605 24.6993 40.5605 24.6992 40.5605C24.6991 40.5605 24.699 40.5605 24.6988 40.5605C24.6987 40.5605 24.6986 40.5605 24.6985 40.5605C24.6983 40.5605 24.6982 40.5605 24.6981 40.5605C24.698 40.5605 24.6979 40.5605 24.6977 40.5605C24.6976 40.5605 24.6975 40.5605 24.6974 40.5605C24.6972 40.5605 24.6971 40.5605 24.697 40.5605C24.6969 40.5605 24.6967 40.5605 24.6966 40.5605C24.6965 40.5605 24.6964 40.5605 24.6962 40.5605C24.6961 40.5605 24.696 40.5605 24.6959 40.5605C24.6958 40.5605 24.6956 40.5605 24.6955 40.5605C24.6954 40.5605 24.6953 40.5605 24.6951 40.5605C24.695 40.5605 24.6949 40.5605 24.6948 40.5605C24.6946 40.5605 24.6945 40.5605 24.6944 40.5605C24.6943 40.5605 24.6941 40.5605 24.694 40.5605C24.6939 40.5605 24.6938 40.5605 24.6936 40.5605C24.6935 40.5605 24.6934 40.5605 24.6933 40.5605C24.6931 40.5605 24.693 40.5605 24.6929 40.5605C24.6928 40.5605 24.6927 40.5605 24.6925 40.5605C24.6924 40.5605 24.6923 40.5605 24.6922 40.5605C24.692 40.5605 24.6919 40.5605 24.6918 40.5605C24.6917 40.5605 24.6915 40.5605 24.6914 40.5605V42.5605C24.6915 42.5605 24.6917 42.5605 24.6918 42.5605C24.6919 42.5605 24.692 42.5605 24.6922 42.5605C24.6923 42.5605 24.6924 42.5605 24.6925 42.5605C24.6927 42.5605 24.6928 42.5605 24.6929 42.5605C24.693 42.5605 24.6931 42.5605 24.6933 42.5605C24.6934 42.5605 24.6935 42.5605 24.6936 42.5605C24.6938 42.5605 24.6939 42.5605 24.694 42.5605C24.6941 42.5605 24.6943 42.5605 24.6944 42.5605C24.6945 42.5605 24.6946 42.5605 24.6948 42.5605C24.6949 42.5605 24.695 42.5605 24.6951 42.5605C24.6953 42.5605 24.6954 42.5605 24.6955 42.5605C24.6956 42.5605 24.6958 42.5605 24.6959 42.5605C24.696 42.5605 24.6961 42.5605 24.6962 42.5605C24.6964 42.5605 24.6965 42.5605 24.6966 42.5605C24.6967 42.5605 24.6969 42.5605 24.697 42.5605C24.6971 42.5605 24.6972 42.5605 24.6974 42.5605C24.6975 42.5605 24.6976 42.5605 24.6977 42.5605C24.6979 42.5605 24.698 42.5605 24.6981 42.5605C24.6982 42.5605 24.6983 42.5605 24.6985 42.5605C24.6986 42.5605 24.6987 42.5605 24.6988 42.5605C24.699 42.5605 24.6991 42.5605 24.6992 42.5605C24.6993 42.5605 24.6995 42.5605 24.6996 42.5605C24.6997 42.5605 24.6998 42.5605 24.6999 42.5605C24.7001 42.5605 24.7002 42.5605 24.7003 42.5605C24.7004 42.5605 24.7006 42.5605 24.7007 42.5605C24.7008 42.5605 24.7009 42.5605 24.7011 42.5605C24.7012 42.5605 24.7013 42.5605 24.7014 42.5605C24.7015 42.5605 24.7017 42.5605 24.7018 42.5605C24.7019 42.5605 24.702 42.5605 24.7022 42.5605C24.7023 42.5605 24.7024 42.5605 24.7025 42.5605C24.7027 42.5605 24.7028 42.5605 24.7029 42.5605C24.703 42.5605 24.7031 42.5605 24.7033 42.5605C24.7034 42.5605 24.7035 42.5605 24.7036 42.5605C24.7038 42.5605 24.7039 42.5605 24.704 42.5605C24.7041 42.5605 24.7042 42.5605 24.7044 42.5605C24.7045 42.5605 24.7046 42.5605 24.7047 42.5605C24.7049 42.5605 24.705 42.5605 24.7051 42.5605C24.7052 42.5605 24.7053 42.5605 24.7055 42.5605C24.7056 42.5605 24.7057 42.5605 24.7058 42.5605C24.7059 42.5605 24.7061 42.5605 24.7062 42.5605C24.7063 42.5605 24.7064 42.5605 24.7066 42.5605C24.7067 42.5605 24.7068 42.5605 24.7069 42.5605C24.707 42.5605 24.7072 42.5605 24.7073 42.5605C24.7074 42.5605 24.7075 42.5605 24.7077 42.5605C24.7078 42.5605 24.7079 42.5605 24.708 42.5605C24.7081 42.5605 24.7083 42.5605 24.7084 42.5605C24.7085 42.5605 24.7086 42.5605 24.7087 42.5605C24.7089 42.5605 24.709 42.5605 24.7091 42.5605C24.7092 42.5605 24.7094 42.5605 24.7095 42.5605C24.7096 42.5605 24.7097 42.5605 24.7098 42.5605C24.71 42.5605 24.7101 42.5605 24.7102 42.5605C24.7103 42.5605 24.7104 42.5605 24.7106 42.5605C24.7107 42.5605 24.7108 42.5605 24.7109 42.5605C24.711 42.5605 24.7112 42.5605 24.7113 42.5605C24.7114 42.5605 24.7115 42.5605 24.7117 42.5605C24.7118 42.5605 24.7119 42.5605 24.712 42.5605C24.7121 42.5605 24.7123 42.5605 24.7124 42.5605C24.7125 42.5605 24.7126 42.5605 24.7127 42.5605C24.7129 42.5605 24.713 42.5605 24.7131 42.5605C24.7132 42.5605 24.7133 42.5605 24.7135 42.5605C24.7136 42.5605 24.7137 42.5605 24.7138 42.5605C24.7139 42.5605 24.7141 42.5605 24.7142 42.5605C24.7143 42.5605 24.7144 42.5605 24.7145 42.5605C24.7147 42.5605 24.7148 42.5605 24.7149 42.5605C24.715 42.5605 24.7151 42.5605 24.7153 42.5605C24.7154 42.5605 24.7155 42.5605 24.7156 42.5605C24.7157 42.5605 24.7159 42.5605 24.716 42.5605C24.7161 42.5605 24.7162 42.5605 24.7163 42.5605C24.7165 42.5605 24.7166 42.5605 24.7167 42.5605C24.7168 42.5605 24.7169 42.5605 24.7171 42.5605C24.7172 42.5605 24.7173 42.5605 24.7174 42.5605C24.7175 42.5605 24.7177 42.5605 24.7178 42.5605C24.7179 42.5605 24.718 42.5605 24.7181 42.5605C24.7183 42.5605 24.7184 42.5605 24.7185 42.5605C24.7186 42.5605 24.7187 42.5605 24.7189 42.5605C24.719 42.5605 24.7191 42.5605 24.7192 42.5605C24.7193 42.5605 24.7195 42.5605 24.7196 42.5605C24.7197 42.5605 24.7198 42.5605 24.7199 42.5605C24.7201 42.5605 24.7202 42.5605 24.7203 42.5605C24.7204 42.5605 24.7205 42.5605 24.7206 42.5605C24.7208 42.5605 24.7209 42.5605 24.721 42.5605C24.7211 42.5605 24.7212 42.5605 24.7214 42.5605C24.7215 42.5605 24.7216 42.5605 24.7217 42.5605C24.7218 42.5605 24.722 42.5605 24.7221 42.5605C24.7222 42.5605 24.7223 42.5605 24.7224 42.5605C24.7225 42.5605 24.7227 42.5605 24.7228 42.5605C24.7229 42.5605 24.723 42.5605 24.7231 42.5605C24.7233 42.5605 24.7234 42.5605 24.7235 42.5605C24.7236 42.5605 24.7237 42.5605 24.7239 42.5605C24.724 42.5605 24.7241 42.5605 24.7242 42.5605C24.7243 42.5605 24.7244 42.5605 24.7246 42.5605C24.7247 42.5605 24.7248 42.5605 24.7249 42.5605C24.725 42.5605 24.7252 42.5605 24.7253 42.5605C24.7254 42.5605 24.7255 42.5605 24.7256 42.5605C24.7257 42.5605 24.7259 42.5605 24.726 42.5605C24.7261 42.5605 24.7262 42.5605 24.7263 42.5605C24.7265 42.5605 24.7266 42.5605 24.7267 42.5605C24.7268 42.5605 24.7269 42.5605 24.727 42.5605C24.7272 42.5605 24.7273 42.5605 24.7274 42.5605C24.7275 42.5605 24.7276 42.5605 24.7277 42.5605C24.7279 42.5605 24.728 42.5605 24.7281 42.5605C24.7282 42.5605 24.7283 42.5605 24.7285 42.5605C24.7286 42.5605 24.7287 42.5605 24.7288 42.5605C24.7289 42.5605 24.729 42.5605 24.7292 42.5605C24.7293 42.5605 24.7294 42.5605 24.7295 42.5605C24.7296 42.5605 24.7297 42.5605 24.7299 42.5605C24.73 42.5605 24.7301 42.5605 24.7302 42.5605C24.7303 42.5605 24.7304 42.5605 24.7306 42.5605C24.7307 42.5605 24.7308 42.5605 24.7309 42.5605C24.731 42.5605 24.7311 42.5605 24.7313 42.5605C24.7314 42.5605 24.7315 42.5605 24.7316 42.5605C24.7317 42.5605 24.7319 42.5605 24.732 42.5605C24.7321 42.5605 24.7322 42.5605 24.7323 42.5605C24.7324 42.5605 24.7326 42.5605 24.7327 42.5605C24.7328 42.5605 24.7329 42.5605 24.733 42.5605C24.7331 42.5605 24.7333 42.5605 24.7334 42.5605C24.7335 42.5605 24.7336 42.5605 24.7337 42.5605C24.7338 42.5605 24.734 42.5605 24.7341 42.5605C24.7342 42.5605 24.7343 42.5605 24.7344 42.5605C24.7345 42.5605 24.7346 42.5605 24.7348 42.5605C24.7349 42.5605 24.735 42.5605 24.7351 42.5605C24.7352 42.5605 24.7353 42.5605 24.7355 42.5605C24.7356 42.5605 24.7357 42.5605 24.7358 42.5605C24.7359 42.5605 24.736 42.5605 24.7362 42.5605C24.7363 42.5605 24.7364 42.5605 24.7365 42.5605C24.7366 42.5605 24.7367 42.5605 24.7369 42.5605C24.737 42.5605 24.7371 42.5605 24.7372 42.5605C24.7373 42.5605 24.7374 42.5605 24.7375 42.5605C24.7377 42.5605 24.7378 42.5605 24.7379 42.5605C24.738 42.5605 24.7381 42.5605 24.7382 42.5605C24.7384 42.5605 24.7385 42.5605 24.7386 42.5605C24.7387 42.5605 24.7388 42.5605 24.7389 42.5605C24.7391 42.5605 24.7392 42.5605 24.7393 42.5605C24.7394 42.5605 24.7395 42.5605 24.7396 42.5605C24.7397 42.5605 24.7399 42.5605 24.74 42.5605C24.7401 42.5605 24.7402 42.5605 24.7403 42.5605C24.7404 42.5605 24.7405 42.5605 24.7407 42.5605C24.7408 42.5605 24.7409 42.5605 24.741 42.5605C24.7411 42.5605 24.7412 42.5605 24.7414 42.5605C24.7415 42.5605 24.7416 42.5605 24.7417 42.5605C24.7418 42.5605 24.7419 42.5605 24.742 42.5605C24.7422 42.5605 24.7423 42.5605 24.7424 42.5605C24.7425 42.5605 24.7426 42.5605 24.7427 42.5605C24.7428 42.5605 24.743 42.5605 24.7431 42.5605C24.7432 42.5605 24.7433 42.5605 24.7434 42.5605C24.7435 42.5605 24.7436 42.5605 24.7438 42.5605C24.7439 42.5605 24.744 42.5605 24.7441 42.5605C24.7442 42.5605 24.7443 42.5605 24.7444 42.5605C24.7446 42.5605 24.7447 42.5605 24.7448 42.5605C24.7449 42.5605 24.745 42.5605 24.7451 42.5605C24.7452 42.5605 24.7454 42.5605 24.7455 42.5605C24.7456 42.5605 24.7457 42.5605 24.7458 42.5605C24.7459 42.5605 24.746 42.5605 24.7462 42.5605C24.7463 42.5605 24.7464 42.5605 24.7465 42.5605C24.7466 42.5605 24.7467 42.5605 24.7468 42.5605C24.747 42.5605 24.7471 42.5605 24.7472 42.5605C24.7473 42.5605 24.7474 42.5605 24.7475 42.5605C24.7476 42.5605 24.7478 42.5605 24.7479 42.5605C24.748 42.5605 24.7481 42.5605 24.7482 42.5605C24.7483 42.5605 24.7484 42.5605 24.7486 42.5605C24.7487 42.5605 24.7488 42.5605 24.7489 42.5605C24.749 42.5605 24.7491 42.5605 24.7492 42.5605C24.7493 42.5605 24.7495 42.5605 24.7496 42.5605C24.7497 42.5605 24.7498 42.5605 24.7499 42.5605C24.75 42.5605 24.7501 42.5605 24.7503 42.5605C24.7504 42.5605 24.7505 42.5605 24.7506 42.5605C24.7507 42.5605 24.7508 42.5605 24.7509 42.5605C24.751 42.5605 24.7512 42.5605 24.7513 42.5605C24.7514 42.5605 24.7515 42.5605 24.7516 42.5605C24.7517 42.5605 24.7518 42.5605 24.7519 42.5605C24.7521 42.5605 24.7522 42.5605 24.7523 42.5605C24.7524 42.5605 24.7525 42.5605 24.7526 42.5605C24.7527 42.5605 24.7528 42.5605 24.753 42.5605C24.7531 42.5605 24.7532 42.5605 24.7533 42.5605C24.7534 42.5605 24.7535 42.5605 24.7536 42.5605C24.7537 42.5605 24.7539 42.5605 24.754 42.5605C24.7541 42.5605 24.7542 42.5605 24.7543 42.5605C24.7544 42.5605 24.7545 42.5605 24.7546 42.5605C24.7548 42.5605 24.7549 42.5605 24.755 42.5605C24.7551 42.5605 24.7552 42.5605 24.7553 42.5605C24.7554 42.5605 24.7555 42.5605 24.7557 42.5605C24.7558 42.5605 24.7559 42.5605 24.756 42.5605C24.7561 42.5605 24.7562 42.5605 24.7563 42.5605C24.7564 42.5605 24.7565 42.5605 24.7567 42.5605C24.7568 42.5605 24.7569 42.5605 24.757 42.5605C24.7571 42.5605 24.7572 42.5605 24.7573 42.5605C24.7574 42.5605 24.7576 42.5605 24.7577 42.5605C24.7578 42.5605 24.7579 42.5605 24.758 42.5605C24.7581 42.5605 24.7582 42.5605 24.7583 42.5605C24.7584 42.5605 24.7586 42.5605 24.7587 42.5605C24.7588 42.5605 24.7589 42.5605 24.759 42.5605C24.7591 42.5605 24.7592 42.5605 24.7593 42.5605C24.7594 42.5605 24.7596 42.5605 24.7597 42.5605C24.7598 42.5605 24.7599 42.5605 24.76 42.5605C24.7601 42.5605 24.7602 42.5605 24.7603 42.5605C24.7604 42.5605 24.7606 42.5605 24.7607 42.5605C24.7608 42.5605 24.7609 42.5605 24.761 42.5605C24.7611 42.5605 24.7612 42.5605 24.7613 42.5605C24.7614 42.5605 24.7616 42.5605 24.7617 42.5605C24.7618 42.5605 24.7619 42.5605 24.762 42.5605C24.7621 42.5605 24.7622 42.5605 24.7623 42.5605C24.7624 42.5605 24.7626 42.5605 24.7627 42.5605C24.7628 42.5605 24.7629 42.5605 24.763 42.5605C24.7631 42.5605 24.7632 42.5605 24.7633 42.5605C24.7634 42.5605 24.7635 42.5605 24.7637 42.5605C24.7638 42.5605 24.7639 42.5605 24.764 42.5605C24.7641 42.5605 24.7642 42.5605 24.7643 42.5605C24.7644 42.5605 24.7645 42.5605 24.7647 42.5605C24.7648 42.5605 24.7649 42.5605 24.765 42.5605C24.7651 42.5605 24.7652 42.5605 24.7653 42.5605C24.7654 42.5605 24.7655 42.5605 24.7656 42.5605C24.7658 42.5605 24.7659 42.5605 24.766 42.5605C24.7661 42.5605 24.7662 42.5605 24.7663 42.5605C24.7664 42.5605 24.7665 42.5605 24.7666 42.5605C24.7667 42.5605 24.7669 42.5605 24.767 42.5605C24.7671 42.5605 24.7672 42.5605 24.7673 42.5605C24.7674 42.5605 24.7675 42.5605 24.7676 42.5605C24.7677 42.5605 24.7678 42.5605 24.7679 42.5605C24.7681 42.5605 24.7682 42.5605 24.7683 42.5605C24.7684 42.5605 24.7685 42.5605 24.7686 42.5605C24.7687 42.5605 24.7688 42.5605 24.7689 42.5605C24.769 42.5605 24.7691 42.5605 24.7693 42.5605C24.7694 42.5605 24.7695 42.5605 24.7696 42.5605C24.7697 42.5605 24.7698 42.5605 24.7699 42.5605C24.77 42.5605 24.7701 42.5605 24.7702 42.5605C24.7703 42.5605 24.7705 42.5605 24.7706 42.5605C24.7707 42.5605 24.7708 42.5605 24.7709 42.5605C24.771 42.5605 24.7711 42.5605 24.7712 42.5605C24.7713 42.5605 24.7714 42.5605 24.7715 42.5605C24.7717 42.5605 24.7718 42.5605 24.7719 42.5605C24.772 42.5605 24.7721 42.5605 24.7722 42.5605C24.7723 42.5605 24.7724 42.5605 24.7725 42.5605C24.7726 42.5605 24.7727 42.5605 24.7728 42.5605C24.773 42.5605 24.7731 42.5605 24.7732 42.5605C24.7733 42.5605 24.7734 42.5605 24.7735 42.5605C24.7736 42.5605 24.7737 42.5605 24.7738 42.5605C24.7739 42.5605 24.774 42.5605 24.7741 42.5605C24.7743 42.5605 24.7744 42.5605 24.7745 42.5605C24.7746 42.5605 24.7747 42.5605 24.7748 42.5605C24.7749 42.5605 24.775 42.5605 24.7751 42.5605C24.7752 42.5605 24.7753 42.5605 24.7754 42.5605C24.7756 42.5605 24.7757 42.5605 24.7758 42.5605C24.7759 42.5605 24.776 42.5605 24.7761 42.5605C24.7762 42.5605 24.7763 42.5605 24.7764 42.5605C24.7765 42.5605 24.7766 42.5605 24.7767 42.5605C24.7768 42.5605 24.777 42.5605 24.7771 42.5605C24.7772 42.5605 24.7773 42.5605 24.7774 42.5605C24.7775 42.5605 24.7776 42.5605 24.7777 42.5605C24.7778 42.5605 24.7779 42.5605 24.778 42.5605C24.7781 42.5605 24.7782 42.5605 24.7783 42.5605C24.7785 42.5605 24.7786 42.5605 24.7787 42.5605C24.7788 42.5605 24.7789 42.5605 24.779 42.5605C24.7791 42.5605 24.7792 42.5605 24.7793 42.5605C24.7794 42.5605 24.7795 42.5605 24.7796 42.5605C24.7797 42.5605 24.7798 42.5605 24.78 42.5605C24.7801 42.5605 24.7802 42.5605 24.7803 42.5605C24.7804 42.5605 24.7805 42.5605 24.7806 42.5605C24.7807 42.5605 24.7808 42.5605 24.7809 42.5605C24.781 42.5605 24.7811 42.5605 24.7812 42.5605C24.7813 42.5605 24.7814 42.5605 24.7816 42.5605C24.7817 42.5605 24.7818 42.5605 24.7819 42.5605C24.782 42.5605 24.7821 42.5605 24.7822 42.5605C24.7823 42.5605 24.7824 42.5605 24.7825 42.5605C24.7826 42.5605 24.7827 42.5605 24.7828 42.5605C24.7829 42.5605 24.783 42.5605 24.7831 42.5605C24.7833 42.5605 24.7834 42.5605 24.7835 42.5605C24.7836 42.5605 24.7837 42.5605 24.7838 42.5605C24.7839 42.5605 24.784 42.5605 24.7841 42.5605C24.7842 42.5605 24.7843 42.5605 24.7844 42.5605C24.7845 42.5605 24.7846 42.5605 24.7847 42.5605C24.7848 42.5605 24.785 42.5605 24.7851 42.5605C24.7852 42.5605 24.7853 42.5605 24.7854 42.5605C24.7855 42.5605 24.7856 42.5605 24.7857 42.5605C24.7858 42.5605 24.7859 42.5605 24.786 42.5605C24.7861 42.5605 24.7862 42.5605 24.7863 42.5605C24.7864 42.5605 24.7865 42.5605 24.7866 42.5605C24.7867 42.5605 24.7869 42.5605 24.787 42.5605C24.7871 42.5605 24.7872 42.5605 24.7873 42.5605C24.7874 42.5605 24.7875 42.5605 24.7876 42.5605C24.7877 42.5605 24.7878 42.5605 24.7879 42.5605C24.788 42.5605 24.7881 42.5605 24.7882 42.5605C24.7883 42.5605 24.7884 42.5605 24.7885 42.5605C24.7886 42.5605 24.7887 42.5605 24.7888 42.5605C24.789 42.5605 24.7891 42.5605 24.7892 42.5605C24.7893 42.5605 24.7894 42.5605 24.7895 42.5605C24.7896 42.5605 24.7897 42.5605 24.7898 42.5605C24.7899 42.5605 24.79 42.5605 24.7901 42.5605C24.7902 42.5605 24.7903 42.5605 24.7904 42.5605C24.7905 42.5605 24.7906 42.5605 24.7907 42.5605C24.7908 42.5605 24.7909 42.5605 24.791 42.5605C24.7912 42.5605 24.7913 42.5605 24.7914 42.5605C24.7915 42.5605 24.7916 42.5605 24.7917 42.5605C24.7918 42.5605 24.7919 42.5605 24.792 42.5605C24.7921 42.5605 24.7922 42.5605 24.7923 42.5605C24.7924 42.5605 24.7925 42.5605 24.7926 42.5605C24.7927 42.5605 24.7928 42.5605 24.7929 42.5605C24.793 42.5605 24.7931 42.5605 24.7932 42.5605C24.7933 42.5605 24.7934 42.5605 24.7935 42.5605C24.7937 42.5605 24.7938 42.5605 24.7939 42.5605C24.794 42.5605 24.7941 42.5605 24.7942 42.5605C24.7943 42.5605 24.7944 42.5605 24.7945 42.5605C24.7946 42.5605 24.7947 42.5605 24.7948 42.5605C24.7949 42.5605 24.795 42.5605 24.7951 42.5605C24.7952 42.5605 24.7953 42.5605 24.7954 42.5605C24.7955 42.5605 24.7956 42.5605 24.7957 42.5605C24.7958 42.5605 24.7959 42.5605 24.796 42.5605C24.7961 42.5605 24.7962 42.5605 24.7963 42.5605C24.7964 42.5605 24.7966 42.5605 24.7967 42.5605C24.7968 42.5605 24.7969 42.5605 24.797 42.5605C24.7971 42.5605 24.7972 42.5605 24.7973 42.5605C24.7974 42.5605 24.7975 42.5605 24.7976 42.5605C24.7977 42.5605 24.7978 42.5605 24.7979 42.5605C24.798 42.5605 24.7981 42.5605 24.7982 42.5605C24.7983 42.5605 24.7984 42.5605 24.7985 42.5605C24.7986 42.5605 24.7987 42.5605 24.7988 42.5605C24.7989 42.5605 24.799 42.5605 24.7991 42.5605C24.7992 42.5605 24.7993 42.5605 24.7994 42.5605C24.7995 42.5605 24.7996 42.5605 24.7997 42.5605C24.7998 42.5605 24.7999 42.5605 24.8 42.5605C24.8001 42.5605 24.8003 42.5605 24.8004 42.5605C24.8005 42.5605 24.8006 42.5605 24.8007 42.5605C24.8008 42.5605 24.8009 42.5605 24.801 42.5605C24.8011 42.5605 24.8012 42.5605 24.8013 42.5605C24.8014 42.5605 24.8015 42.5605 24.8016 42.5605C24.8017 42.5605 24.8018 42.5605 24.8019 42.5605C24.802 42.5605 24.8021 42.5605 24.8022 42.5605C24.8023 42.5605 24.8024 42.5605 24.8025 42.5605C24.8026 42.5605 24.8027 42.5605 24.8028 42.5605C24.8029 42.5605 24.803 42.5605 24.8031 42.5605C24.8032 42.5605 24.8033 42.5605 24.8034 42.5605C24.8035 42.5605 24.8036 42.5605 24.8037 42.5605C24.8038 42.5605 24.8039 42.5605 24.804 42.5605C24.8041 42.5605 24.8042 42.5605 24.8043 42.5605C24.8044 42.5605 24.8045 42.5605 24.8046 42.5605C24.8047 42.5605 24.8048 42.5605 24.8049 42.5605C24.805 42.5605 24.8051 42.5605 24.8052 42.5605C24.8053 42.5605 24.8054 42.5605 24.8055 42.5605C24.8056 42.5605 24.8057 42.5605 24.8058 42.5605C24.8059 42.5605 24.806 42.5605 24.8062 42.5605C24.8063 42.5605 24.8064 42.5605 24.8065 42.5605C24.8066 42.5605 24.8067 42.5605 24.8068 42.5605C24.8069 42.5605 24.807 42.5605 24.8071 42.5605C24.8072 42.5605 24.8073 42.5605 24.8074 42.5605C24.8075 42.5605 24.8076 42.5605 24.8077 42.5605C24.8078 42.5605 24.8079 42.5605 24.808 42.5605C24.8081 42.5605 24.8082 42.5605 24.8083 42.5605C24.8084 42.5605 24.8085 42.5605 24.8086 42.5605C24.8087 42.5605 24.8088 42.5605 24.8089 42.5605C24.809 42.5605 24.8091 42.5605 24.8092 42.5605C24.8093 42.5605 24.8094 42.5605 24.8095 42.5605C24.8096 42.5605 24.8097 42.5605 24.8098 42.5605C24.8099 42.5605 24.81 42.5605 24.8101 42.5605C24.8102 42.5605 24.8103 42.5605 24.8104 42.5605C24.8105 42.5605 24.8106 42.5605 24.8107 42.5605C24.8108 42.5605 24.8109 42.5605 24.811 42.5605C24.8111 42.5605 24.8112 42.5605 24.8113 42.5605C24.8114 42.5605 24.8115 42.5605 24.8116 42.5605C24.8117 42.5605 24.8118 42.5605 24.8119 42.5605C24.812 42.5605 24.8121 42.5605 24.8122 42.5605C24.8123 42.5605 24.8124 42.5605 24.8125 42.5605C24.8126 42.5605 24.8127 42.5605 24.8128 42.5605C24.8129 42.5605 24.813 42.5605 24.8131 42.5605C24.8132 42.5605 24.8133 42.5605 24.8134 42.5605C24.8135 42.5605 24.8136 42.5605 24.8137 42.5605C24.8138 42.5605 24.8139 42.5605 24.814 42.5605C24.8141 42.5605 24.8142 42.5605 24.8143 42.5605C24.8144 42.5605 24.8145 42.5605 24.8146 42.5605C24.8147 42.5605 24.8148 42.5605 24.8149 42.5605C24.815 42.5605 24.8151 42.5605 24.8152 42.5605C24.8152 42.5605 24.8153 42.5605 24.8154 42.5605C24.8155 42.5605 24.8156 42.5605 24.8157 42.5605C24.8158 42.5605 24.8159 42.5605 24.816 42.5605C24.8161 42.5605 24.8162 42.5605 24.8163 42.5605C24.8164 42.5605 24.8165 42.5605 24.8166 42.5605C24.8167 42.5605 24.8168 42.5605 24.8169 42.5605C24.817 42.5605 24.8171 42.5605 24.8172 42.5605C24.8173 42.5605 24.8174 42.5605 24.8175 42.5605C24.8176 42.5605 24.8177 42.5605 24.8178 42.5605C24.8179 42.5605 24.818 42.5605 24.8181 42.5605C24.8182 42.5605 24.8183 42.5605 24.8184 42.5605C24.8185 42.5605 24.8186 42.5605 24.8187 42.5605C24.8188 42.5605 24.8189 42.5605 24.819 42.5605C24.8191 42.5605 24.8192 42.5605 24.8193 42.5605C24.8194 42.5605 24.8195 42.5605 24.8196 42.5605C24.8197 42.5605 24.8198 42.5605 24.8199 42.5605C24.82 42.5605 24.8201 42.5605 24.8202 42.5605C24.8203 42.5605 24.8204 42.5605 24.8205 42.5605C24.8206 42.5605 24.8207 42.5605 24.8208 42.5605C24.8209 42.5605 24.8209 42.5605 24.821 42.5605C24.8211 42.5605 24.8212 42.5605 24.8213 42.5605C24.8214 42.5605 24.8215 42.5605 24.8216 42.5605C24.8217 42.5605 24.8218 42.5605 24.8219 42.5605C24.822 42.5605 24.8221 42.5605 24.8222 42.5605C24.8223 42.5605 24.8224 42.5605 24.8225 42.5605C24.8226 42.5605 24.8227 42.5605 24.8228 42.5605C24.8229 42.5605 24.823 42.5605 24.8231 42.5605C24.8232 42.5605 24.8233 42.5605 24.8234 42.5605C24.8235 42.5605 24.8236 42.5605 24.8237 42.5605C24.8238 42.5605 24.8239 42.5605 24.824 42.5605C24.8241 42.5605 24.8242 42.5605 24.8243 42.5605C24.8243 42.5605 24.8244 42.5605 24.8245 42.5605C24.8246 42.5605 24.8247 42.5605 24.8248 42.5605C24.8249 42.5605 24.825 42.5605 24.8251 42.5605C24.8252 42.5605 24.8253 42.5605 24.8254 42.5605C24.8255 42.5605 24.8256 42.5605 24.8257 42.5605C24.8258 42.5605 24.8259 42.5605 24.826 42.5605C24.8261 42.5605 24.8262 42.5605 24.8263 42.5605C24.8264 42.5605 24.8265 42.5605 24.8266 42.5605C24.8267 42.5605 24.8268 42.5605 24.8269 42.5605C24.827 42.5605 24.8271 42.5605 24.8271 42.5605C24.8272 42.5605 24.8273 42.5605 24.8274 42.5605C24.8275 42.5605 24.8276 42.5605 24.8277 42.5605C24.8278 42.5605 24.8279 42.5605 24.828 42.5605C24.8281 42.5605 24.8282 42.5605 24.8283 42.5605C24.8284 42.5605 24.8285 42.5605 24.8286 42.5605C24.8287 42.5605 24.8288 42.5605 24.8289 42.5605C24.829 42.5605 24.8291 42.5605 24.8292 42.5605C24.8293 42.5605 24.8294 42.5605 24.8294 42.5605C24.8295 42.5605 24.8296 42.5605 24.8297 42.5605C24.8298 42.5605 24.8299 42.5605 24.83 42.5605C24.8301 42.5605 24.8302 42.5605 24.8303 42.5605C24.8304 42.5605 24.8305 42.5605 24.8306 42.5605C24.8307 42.5605 24.8308 42.5605 24.8309 42.5605C24.831 42.5605 24.8311 42.5605 24.8312 42.5605C24.8313 42.5605 24.8314 42.5605 24.8314 42.5605C24.8315 42.5605 24.8316 42.5605 24.8317 42.5605C24.8318 42.5605 24.8319 42.5605 24.832 42.5605C24.8321 42.5605 24.8322 42.5605 24.8323 42.5605C24.8324 42.5605 24.8325 42.5605 24.8326 42.5605C24.8327 42.5605 24.8328 42.5605 24.8329 42.5605C24.833 42.5605 24.8331 42.5605 24.8332 42.5605C24.8332 42.5605 24.8333 42.5605 24.8334 42.5605C24.8335 42.5605 24.8336 42.5605 24.8337 42.5605C24.8338 42.5605 24.8339 42.5605 24.834 42.5605C24.8341 42.5605 24.8342 42.5605 24.8343 42.5605C24.8344 42.5605 24.8345 42.5605 24.8346 42.5605C24.8347 42.5605 24.8348 42.5605 24.8349 42.5605C24.8349 42.5605 24.835 42.5605 24.8351 42.5605C24.8352 42.5605 24.8353 42.5605 24.8354 42.5605C24.8355 42.5605 24.8356 42.5605 24.8357 42.5605C24.8358 42.5605 24.8359 42.5605 24.836 42.5605C24.8361 42.5605 24.8362 42.5605 24.8363 42.5605C24.8364 42.5605 24.8365 42.5605 24.8365 42.5605C24.8366 42.5605 24.8367 42.5605 24.8368 42.5605C24.8369 42.5605 24.837 42.5605 24.8371 42.5605C24.8372 42.5605 24.8373 42.5605 24.8374 42.5605C24.8375 42.5605 24.8376 42.5605 24.8377 42.5605C24.8378 42.5605 24.8379 42.5605 24.838 42.5605C24.838 42.5605 24.8381 42.5605 24.8382 42.5605C24.8383 42.5605 24.8384 42.5605 24.8385 42.5605C24.8386 42.5605 24.8387 42.5605 24.8388 42.5605C24.8389 42.5605 24.839 42.5605 24.8391 42.5605C24.8392 42.5605 24.8393 42.5605 24.8394 42.5605C24.8394 42.5605 24.8395 42.5605 24.8396 42.5605C24.8397 42.5605 24.8398 42.5605 24.8399 42.5605C24.84 42.5605 24.8401 42.5605 24.8402 42.5605C24.8403 42.5605 24.8404 42.5605 24.8405 42.5605C24.8406 42.5605 24.8407 42.5605 24.8407 42.5605C24.8408 42.5605 24.8409 42.5605 24.841 42.5605C24.8411 42.5605 24.8412 42.5605 24.8413 42.5605C24.8414 42.5605 24.8415 42.5605 24.8416 42.5605C24.8417 42.5605 24.8418 42.5605 24.8419 42.5605C24.8419 42.5605 24.842 42.5605 24.8421 42.5605C24.8422 42.5605 24.8423 42.5605 24.8424 42.5605C24.8425 42.5605 24.8426 42.5605 24.8427 42.5605C24.8428 42.5605 24.8429 42.5605 24.843 42.5605C24.8431 42.5605 24.8431 42.5605 24.8432 42.5605C24.8433 42.5605 24.8434 42.5605 24.8435 42.5605C24.8436 42.5605 24.8437 42.5605 24.8438 42.5605C24.8439 42.5605 24.844 42.5605 24.8441 42.5605C24.8442 42.5605 24.8443 42.5605 24.8443 42.5605C24.8444 42.5605 24.8445 42.5605 24.8446 42.5605C24.8447 42.5605 24.8448 42.5605 24.8449 42.5605C24.845 42.5605 24.8451 42.5605 24.8452 42.5605C24.8453 42.5605 24.8454 42.5605 24.8454 42.5605C24.8455 42.5605 24.8456 42.5605 24.8457 42.5605C24.8458 42.5605 24.8459 42.5605 24.846 42.5605C24.8461 42.5605 24.8462 42.5605 24.8463 42.5605C24.8464 42.5605 24.8465 42.5605 24.8465 42.5605C24.8466 42.5605 24.8467 42.5605 24.8468 42.5605C24.8469 42.5605 24.847 42.5605 24.8471 42.5605C24.8472 42.5605 24.8473 42.5605 24.8474 42.5605C24.8475 42.5605 24.8475 42.5605 24.8476 42.5605C24.8477 42.5605 24.8478 42.5605 24.8479 42.5605C24.848 42.5605 24.8481 42.5605 24.8482 42.5605C24.8483 42.5605 24.8484 42.5605 24.8485 42.5605C24.8485 42.5605 24.8486 42.5605 24.8487 42.5605C24.8488 42.5605 24.8489 42.5605 24.849 42.5605C24.8491 42.5605 24.8492 42.5605 24.8493 42.5605C24.8494 42.5605 24.8495 42.5605 24.8495 42.5605C24.8496 42.5605 24.8497 42.5605 24.8498 42.5605C24.8499 42.5605 24.85 42.5605 24.8501 42.5605C24.8502 42.5605 24.8503 42.5605 24.8504 42.5605C24.8504 42.5605 24.8505 42.5605 24.8506 42.5605C24.8507 42.5605 24.8508 42.5605 24.8509 42.5605C24.851 42.5605 24.8511 42.5605 24.8512 42.5605C24.8513 42.5605 24.8513 42.5605 24.8514 42.5605C24.8515 42.5605 24.8516 42.5605 24.8517 42.5605C24.8518 42.5605 24.8519 42.5605 24.852 42.5605C24.8521 42.5605 24.8522 42.5605 24.8522 42.5605C24.8523 42.5605 24.8524 42.5605 24.8525 42.5605C24.8526 42.5605 24.8527 42.5605 24.8528 42.5605C24.8529 42.5605 24.853 42.5605 24.8531 42.5605C24.8531 42.5605 24.8532 42.5605 24.8533 42.5605C24.8534 42.5605 24.8535 42.5605 24.8536 42.5605C24.8537 42.5605 24.8538 42.5605 24.8539 42.5605C24.854 42.5605 24.854 42.5605 24.8541 42.5605C24.8542 42.5605 24.8543 42.5605 24.8544 42.5605C24.8545 42.5605 24.8546 42.5605 24.8547 42.5605C24.8548 42.5605 24.8548 42.5605 24.8549 42.5605C24.855 42.5605 24.8551 42.5605 24.8552 42.5605C24.8553 42.5605 24.8554 42.5605 24.8555 42.5605V40.5605ZM24.4489 40.5904C24.6291 40.5453 24.7718 40.5728 24.8397 40.5922C24.9066 40.6113 24.9382 40.6329 24.9284 40.6269L23.8802 42.3302C24.0515 42.4356 24.451 42.6514 24.9339 42.5307L24.4489 40.5904ZM24.9082 40.6147C24.8375 40.5735 24.7781 40.5325 24.7282 40.4926L23.4788 42.0543C23.6112 42.1602 23.7523 42.2559 23.9004 42.3423L24.9082 40.6147ZM24.8106 40.5663C24.8341 40.5898 24.8463 40.6065 24.8489 40.6102C24.8518 40.6142 24.8489 40.6106 24.841 40.5964L23.0926 41.5677C23.1648 41.6975 23.2627 41.8468 23.3964 41.9805L24.8106 40.5663ZM24.8148 40.552C24.789 40.5108 24.7722 40.4839 24.7464 40.4427C24.7134 40.3898 24.7453 40.4409 24.7123 40.388C24.7091 40.3829 24.6983 40.3657 24.6952 40.3606C24.692 40.3556 24.6812 40.3383 24.6781 40.3333L22.9821 41.3933C23.0033 41.4273 23.0292 41.4686 23.0504 41.5027C23.0985 41.5796 23.0365 41.4804 23.0846 41.5573C23.1177 41.6102 23.0857 41.5591 23.1188 41.612L24.8148 40.552ZM24.5983 40.2231C24.4544 40.0504 24.2726 39.9122 24.0599 39.8211L23.2721 41.6594C23.1871 41.6229 23.1146 41.5668 23.0619 41.5035L24.5983 40.2231ZM24.1132 39.8458C24.3193 39.9488 24.4235 40.0995 24.4658 40.1748C24.4884 40.2149 24.5012 40.2471 24.5078 40.2655C24.5145 40.2843 24.5171 40.2956 24.5174 40.2966L22.5686 40.7463C22.6036 40.898 22.7277 41.3891 23.2188 41.6347L24.1132 39.8458ZM24.5155 40.2889C24.4334 39.9456 24.3705 39.4885 24.3362 38.9042L22.3396 39.0216C22.3782 39.6768 22.452 40.2589 22.5704 40.7541L24.5155 40.2889ZM24.3369 38.9188C24.3103 38.3145 24.2969 37.6912 24.2969 37.0488H22.2969C22.2969 37.7189 22.3108 38.3717 22.3389 39.007L24.3369 38.9188ZM24.2969 37.0488C24.2969 36.674 24.3013 36.3038 24.3102 35.9384L22.3108 35.8897C22.3015 36.2717 22.2969 36.6581 22.2969 37.0488H24.2969ZM24.3103 35.9379C24.3194 35.556 24.3284 35.197 24.3375 34.861L22.3383 34.807C22.3291 35.1454 22.32 35.5065 22.3108 35.8903L24.3103 35.9379ZM24.3365 34.8865C24.355 34.5344 24.369 34.2081 24.3784 33.9082L22.3794 33.8457C22.3705 34.1291 22.3572 34.4409 22.3393 34.7814L24.3365 34.8865ZM24.377 33.9393C24.3948 33.6533 24.4124 33.4172 24.4295 33.2292L22.4377 33.0481C22.4183 33.2612 22.3994 33.5173 22.3809 33.8146L24.377 33.9393ZM23.5491 32.1454L22.9612 32.077L22.7302 34.0636L23.3181 34.132L23.5491 32.1454ZM22.8457 32.0703C22.7804 32.0703 22.7367 32.0684 22.7105 32.0664C22.6978 32.0654 22.6931 32.0647 22.6949 32.065C22.6959 32.0651 22.7098 32.0671 22.7328 32.0728L22.2477 34.0131C22.4484 34.0633 22.6727 34.0703 22.8457 34.0703V32.0703ZM22.7328 32.0728C22.7289 32.0719 22.7355 32.0733 22.7501 32.0789C22.7644 32.0844 22.7918 32.096 22.827 32.1171L21.798 33.8321C21.9551 33.9264 22.1153 33.98 22.2477 34.0131L22.7328 32.0728ZM23.0196 32.2675C23.0124 32.2603 23.0004 32.2473 22.984 32.2269L21.4223 33.4763C21.4788 33.547 21.5397 33.616 21.6054 33.6817L23.0196 32.2675ZM22.984 32.2269C22.8522 32.0621 22.6966 31.9466 22.5691 31.8668L21.5091 33.5628C21.5146 33.5663 21.5084 33.5629 21.4946 33.5514C21.4811 33.5402 21.4539 33.5159 21.4223 33.4763L22.984 32.2269ZM22.6056 31.8908C22.5749 31.8697 22.5822 31.8703 22.6063 31.897C22.629 31.9221 22.6957 32.0023 22.7371 32.1404L20.8215 32.7151C20.9506 33.1456 21.2799 33.4065 21.4725 33.5389L22.6056 31.8908ZM22.7441 32.1646C22.8383 32.5103 22.6912 32.7595 22.6512 32.8183C22.6092 32.8802 22.5874 32.885 22.6505 32.8362L21.4276 31.2536C21.2902 31.3598 21.1248 31.5059 20.9963 31.6953C20.8697 31.8818 20.6929 32.2449 20.8145 32.6909L22.7441 32.1646ZM22.694 32.8006C22.6608 32.8294 22.6683 32.8039 22.7885 32.7808L22.4108 30.8168C22.0569 30.8849 21.6908 31.0235 21.3841 31.2892L22.694 32.8006ZM22.8245 32.7732C23.0725 32.716 23.3955 32.6363 23.7908 32.5352L23.2951 30.5976C22.9066 30.697 22.6007 30.7723 22.3747 30.8244L22.8245 32.7732ZM24.5421 31.608C24.5605 31.1672 24.5788 30.6722 24.5971 30.1232L22.5982 30.0565C22.5801 30.6013 22.5619 31.0906 22.5438 31.5248L24.5421 31.608ZM24.5964 30.1398C24.6235 29.5973 24.6552 29.0364 24.6914 28.4569L22.6953 28.3322C22.6586 28.9194 22.6265 29.4886 22.5989 30.0399L24.5964 30.1398ZM24.6915 28.456C24.6917 28.4517 24.6946 28.4047 24.6949 28.4004C24.6952 28.3961 24.698 28.3491 24.6983 28.3449C24.6986 28.3406 24.7015 28.2936 24.7017 28.2893C24.702 28.2851 24.7049 28.2381 24.7051 28.2338C24.7054 28.2295 24.7083 28.1825 24.7086 28.1782C24.7088 28.174 24.7117 28.127 24.712 28.1227C24.7122 28.1184 24.7151 28.0714 24.7154 28.0672C24.7157 28.0629 24.7186 28.0159 24.7188 28.0116C24.7191 28.0074 24.722 27.9603 24.7222 27.9561C24.7225 27.9518 24.7254 27.9048 24.7257 27.9005C24.7259 27.8963 24.7288 27.8493 24.7291 27.845C24.7293 27.8407 24.7322 27.7937 24.7325 27.7894C24.7327 27.7852 24.7356 27.7382 24.7359 27.7339C24.7362 27.7296 24.7391 27.6826 24.7393 27.6784C24.7396 27.6741 24.7425 27.6271 24.7427 27.6228C24.743 27.6186 24.7459 27.5715 24.7462 27.5673C24.751 27.4892 24.7687 27.201 24.7735 27.1229C24.7783 27.0449 24.796 26.7567 24.8008 26.6786L22.8046 26.5558C22.8044 26.56 22.8015 26.607 22.8012 26.6113C22.8009 26.6156 22.798 26.6626 22.7978 26.6668C22.7975 26.6711 22.7946 26.7181 22.7944 26.7224C22.7941 26.7267 22.7912 26.7737 22.791 26.7779C22.7907 26.7822 22.7878 26.8292 22.7875 26.8335C22.7873 26.8377 22.7844 26.8848 22.7841 26.889C22.7839 26.8933 22.781 26.9403 22.7807 26.9446C22.7804 26.9488 22.7775 26.9958 22.7773 27.0001C22.777 27.0044 22.7741 27.0514 22.7739 27.0556C22.7736 27.0599 22.7707 27.1069 22.7704 27.1112C22.7702 27.1155 22.7673 27.1625 22.767 27.1667C22.7668 27.171 22.7639 27.218 22.7636 27.2223C22.7633 27.2265 22.7605 27.2735 22.7602 27.2778C22.7599 27.2821 22.757 27.3291 22.7568 27.3334C22.7565 27.3376 22.7536 27.3846 22.7534 27.3889C22.7531 27.3932 22.7502 27.4402 22.7499 27.4444C22.7451 27.5225 22.7274 27.8107 22.7226 27.8888C22.7178 27.9668 22.7001 28.255 22.6952 28.3331L24.6915 28.456ZM24.7999 26.6927C24.8453 26.0938 24.8906 25.5271 24.9359 24.9926L22.943 24.8238C22.8972 25.3648 22.8514 25.9375 22.8056 26.5416L24.7999 26.6927ZM24.9359 24.9926C24.9806 24.4649 25.0295 23.9853 25.0824 23.5532L23.0973 23.3101C23.0408 23.7712 22.9894 24.276 22.943 24.8238L24.9359 24.9926ZM25.0824 23.5532C25.1357 23.1181 25.1874 22.7717 25.2368 22.5085L23.271 22.1399C23.211 22.4601 23.1534 22.852 23.0973 23.3101L25.0824 23.5532ZM25.2439 22.4656C25.2467 22.4459 25.2492 22.4307 25.2513 22.4196C25.2523 22.4142 25.2532 22.41 25.2538 22.4071C25.2541 22.4056 25.2544 22.4046 25.2545 22.4038C25.2547 22.4031 25.2548 22.4027 25.2548 22.4027C25.2548 22.4027 25.2547 22.4031 25.2545 22.4039C25.2543 22.4047 25.2539 22.406 25.2534 22.4077C25.2525 22.411 25.2508 22.4164 25.2483 22.4237C25.2437 22.437 25.2339 22.4635 25.2167 22.498L23.4278 21.6036C23.3237 21.8117 23.2844 22.0398 23.264 22.1828L25.2439 22.4656ZM25.1543 22.6055C25.1276 22.6455 25.0676 22.7206 24.9598 22.7852L23.9308 21.0702C23.7319 21.1896 23.5898 21.3467 23.4902 21.4961L25.1543 22.6055ZM24.6097 22.9141C24.4741 22.9367 24.3255 22.9265 24.1822 22.8744C24.0443 22.8242 23.948 22.7489 23.8886 22.6895L25.3028 21.2753C25.0714 21.0439 24.7092 20.87 24.2809 20.9413L24.6097 22.9141ZM23.8886 22.6895C24.0808 22.8817 24.3549 23.0166 24.6743 23.0166C24.9578 23.0166 25.1758 22.9102 25.3034 22.8304L24.2434 21.1344C24.2982 21.1002 24.4501 21.0166 24.6743 21.0166C24.9345 21.0166 25.1562 21.1287 25.3028 21.2753L23.8886 22.6895ZM25.2207 22.8768C25.286 22.8442 25.2351 22.8696 25.2958 22.8393C25.3179 22.8282 25.3074 22.8335 25.3283 22.823C25.356 22.8092 25.3309 22.8217 25.3574 22.8085L24.4629 21.0196C24.447 21.0276 24.422 21.0401 24.4014 21.0504C24.4006 21.0508 24.3675 21.0674 24.3655 21.0683C24.3655 21.0683 24.3274 21.0874 24.3262 21.088L25.2207 22.8768ZM25.5102 22.7141C25.5013 22.7207 25.4644 22.7481 25.4052 22.7777C25.3744 22.7931 25.3264 22.8148 25.2642 22.8334C25.2034 22.8517 25.1094 22.873 24.9922 22.873V20.873C24.7565 20.873 24.5811 20.9537 24.5108 20.9889C24.4243 21.0321 24.3555 21.0801 24.3102 21.1141L25.5102 22.7141ZM25.3084 22.8217C25.1389 22.8782 24.9038 22.8997 24.6584 22.8015C24.4279 22.7093 24.2942 22.5537 24.2285 22.4551L25.8926 21.3457C25.8086 21.2197 25.6545 21.0459 25.4012 20.9446C25.133 20.8373 24.8729 20.8587 24.676 20.9244L25.3084 22.8217ZM24.2285 22.4551C24.2197 22.4418 24.2146 22.4333 24.214 22.4322C24.213 22.4305 24.2139 22.4319 24.2168 22.4373C24.223 22.4486 24.2332 22.4681 24.2482 22.498L26.037 21.6036C26.0012 21.5319 25.9493 21.4307 25.8926 21.3457L24.2285 22.4551ZM24.4355 22.7579C24.549 22.8714 24.7929 23.0576 25.1562 23.0576C25.5196 23.0576 25.7635 22.8714 25.877 22.7579L24.4628 21.3437C24.5673 21.2392 24.802 21.0576 25.1562 21.0576C25.5104 21.0576 25.7452 21.2392 25.8497 21.3437L24.4355 22.7579ZM25.6171 22.9452C25.7531 22.8772 25.8567 22.7919 25.9317 22.7169L24.5175 21.3027C24.5561 21.2641 24.6232 21.2061 24.7227 21.1564L25.6171 22.9452ZM25.9317 22.7169L25.9864 22.6622L24.5722 21.248L24.5175 21.3027L25.9317 22.7169ZM25.6732 22.8742C25.6376 22.8895 25.613 22.8954 25.6056 22.8971C25.5978 22.8988 25.6003 22.8977 25.6159 22.8963L25.4349 20.9045C25.2728 20.9192 25.0784 20.9532 24.8854 21.0359L25.6732 22.8742ZM25.7043 22.8843C25.6576 22.8928 25.4613 22.9238 25.226 22.8152C24.9368 22.6817 24.7848 22.4321 24.733 22.225L26.6733 21.7399C26.6032 21.4598 26.4124 21.16 26.0641 20.9993C25.7695 20.8633 25.4935 20.8898 25.3465 20.9165L25.7043 22.8843ZM24.7132 22.1238C24.7199 22.1712 24.7422 22.3308 24.8258 22.498C24.8648 22.576 24.9801 22.7869 25.2352 22.9327C25.565 23.1211 25.9262 23.0914 26.1914 22.9589L25.2969 21.17C25.5529 21.042 25.9057 21.0123 26.2275 21.1962C26.4746 21.3374 26.5825 21.5393 26.6146 21.6036C26.6563 21.6869 26.6745 21.7549 26.681 21.7809C26.6889 21.8125 26.6921 21.8345 26.6931 21.841L24.7132 22.1238ZM26.4512 22.7716C26.519 22.7038 26.5748 22.6327 26.6125 22.5824L25.0125 21.3824C25.0064 21.3906 25.0046 21.3926 25.0067 21.3901C25.0079 21.3887 25.0108 21.3852 25.0154 21.3801C25.0199 21.3751 25.0271 21.3672 25.037 21.3573L26.4512 22.7716ZM26.5196 22.6895C26.5268 22.6823 26.5398 22.6703 26.5602 22.6539L25.3109 21.0922C25.2402 21.1487 25.1711 21.2096 25.1054 21.2753L26.5196 22.6895ZM26.5602 22.6539C26.4569 22.7366 26.3252 22.8002 26.1751 22.8253C26.0301 22.8494 25.908 22.831 25.8249 22.8072L26.3743 20.8842C26.0484 20.7911 25.6468 20.8234 25.3109 21.0922L26.5602 22.6539ZM25.7633 22.7874C25.7315 22.7761 25.686 22.7542 25.6379 22.7152C25.589 22.6756 25.5503 22.6289 25.5229 22.582L27.2505 21.5743C27.0593 21.2465 26.7687 21.0228 26.4359 20.904L25.7633 22.7874ZM25.5431 22.615C25.4448 22.4605 25.4291 22.3131 25.4316 22.2315C25.4339 22.1584 25.4502 22.1292 25.4386 22.1596L27.3075 22.8716C27.4134 22.5937 27.5557 22.0525 27.2304 21.5412L25.5431 22.615Z" fill="#784DD8" mask="url(#path-3-outside-1_685_1305)"/>
</svg>
